<svg width="770" height="465" viewBox="0 0 770 465" fill="none" xmlns="http://www.w3.org/2000/svg">
<mask id="mask0_420_7" style="mask-type:alpha" maskUnits="userSpaceOnUse" x="0" y="0" width="770" height="465">
<rect width="770" height="465" fill="#D9D9D9"/>
</mask>
<g mask="url(#mask0_420_7)">
<path d="M621.688 16.9164C629.491 12.7679 639.224 15.7143 642.926 23.738C668.523 79.2177 675.51 141.506 662.84 201.278C661.008 209.923 652.169 214.952 643.642 212.636L537.731 183.86C529.204 181.543 524.266 172.755 525.607 164.021C529.419 139.211 526.571 113.822 517.358 90.4737C514.114 82.2539 516.983 72.5894 524.785 68.4409L621.688 16.9164Z" fill="#ECC558"/>
<path d="M615.691 103.132C615.367 102.828 615.077 102.558 614.816 102.316C612.697 100.351 612.697 100.351 612.054 97.5335C611.975 97.1867 611.887 96.8005 611.786 96.3674C611.292 94.2606 609.509 92.7642 607.349 92.6441C606.904 92.6194 606.509 92.5997 606.153 92.582C603.267 92.4383 603.267 92.4383 600.964 90.6931C600.646 90.452 600.328 90.2118 600.008 89.9726C598.276 88.6758 595.948 88.6758 594.216 89.9726C593.897 90.2118 593.578 90.4519 593.261 90.6931C590.957 92.4383 590.957 92.4383 588.071 92.582C587.716 92.5997 587.32 92.6194 586.876 92.6441C584.715 92.7643 582.932 94.2606 582.439 96.3674C582.337 96.8005 582.249 97.1867 582.17 97.5335C581.527 100.351 581.527 100.351 579.409 102.316C579.148 102.558 578.858 102.828 578.533 103.132C576.955 104.613 576.551 106.905 577.527 108.836C577.728 109.233 577.909 109.586 578.071 109.902C579.39 112.474 579.39 112.474 579.03 115.341C578.986 115.694 578.937 116.087 578.884 116.529C578.627 118.678 579.791 120.694 581.78 121.545C582.189 121.721 582.554 121.874 582.881 122.012C584.254 122.591 584.919 122.871 585.455 123.34L581.161 132.563C581.103 132.687 581.081 132.825 581.096 132.961C581.111 133.097 581.163 133.227 581.246 133.336C581.33 133.445 581.441 133.528 581.569 133.578C581.696 133.628 581.835 133.642 581.97 133.619L586.25 132.871L588.432 136.627C588.501 136.745 588.601 136.843 588.721 136.908C588.841 136.974 588.978 137.005 589.114 136.999C589.251 136.993 589.384 136.949 589.498 136.873C589.612 136.797 589.703 136.691 589.76 136.566L593.541 128.446C593.834 128.357 594.103 128.274 594.351 128.197C597.112 127.345 597.112 127.345 599.874 128.197C600.157 128.284 600.469 128.38 600.81 128.484L604.573 136.566C604.633 136.696 604.729 136.805 604.85 136.882C604.97 136.959 605.11 137 605.253 137C605.519 137 605.767 136.858 605.902 136.627L608.084 132.871L612.363 133.619C612.498 133.642 612.637 133.628 612.765 133.578C612.892 133.529 613.004 133.445 613.087 133.336C613.171 133.227 613.223 133.098 613.238 132.961C613.253 132.825 613.23 132.687 613.172 132.563L608.847 123.273C609.371 122.844 610.037 122.563 611.343 122.012C611.671 121.874 612.036 121.721 612.445 121.545C614.434 120.694 615.598 118.678 615.341 116.529C615.288 116.087 615.239 115.694 615.195 115.341C614.835 112.474 614.835 112.474 616.154 109.902C616.316 109.586 616.497 109.233 616.697 108.836C617.673 106.905 617.269 104.613 615.691 103.132ZM589.007 134.631L587.284 131.665C587.207 131.533 587.091 131.427 586.952 131.362C586.813 131.298 586.657 131.277 586.506 131.303L583.128 131.894L586.507 124.635C586.684 124.899 586.881 125.204 587.112 125.562C587.305 125.861 587.52 126.194 587.764 126.566C588.669 127.952 590.162 128.742 591.741 128.757L589.007 134.631ZM607.827 131.303C607.676 131.277 607.521 131.297 607.382 131.362C607.242 131.427 607.127 131.533 607.05 131.665L605.326 134.63L602.591 128.756C604.13 128.706 605.576 127.92 606.461 126.566C606.704 126.194 606.919 125.861 607.112 125.562C607.372 125.16 607.589 124.825 607.782 124.539L611.206 131.893L607.827 131.303ZM615.358 108.16C615.18 108.513 615 108.866 614.819 109.218C613.332 112.118 613.3 112.295 613.706 115.528C613.75 115.878 613.799 116.269 613.851 116.707C614.031 118.212 613.247 119.57 611.854 120.166C611.448 120.34 611.086 120.493 610.76 120.63C607.757 121.896 607.62 122.011 605.852 124.749C605.66 125.045 605.447 125.376 605.205 125.745C604.376 127.014 602.902 127.55 601.452 127.111C601.029 126.984 600.653 126.868 600.316 126.764C598.759 126.283 597.936 126.043 597.112 126.043C596.289 126.043 595.465 126.283 593.908 126.764C593.571 126.868 593.195 126.984 592.773 127.111C591.322 127.55 589.849 127.014 589.019 125.745C588.777 125.376 588.564 125.045 588.372 124.749C586.605 122.011 586.467 121.896 583.464 120.63C583.099 120.477 582.734 120.322 582.37 120.166C580.977 119.57 580.193 118.212 580.373 116.707C580.42 116.314 580.469 115.921 580.518 115.528C580.924 112.295 580.893 112.118 579.406 109.218C579.225 108.866 579.045 108.513 578.866 108.16C578.182 106.807 578.455 105.263 579.56 104.226C579.882 103.924 580.17 103.656 580.429 103.416C582.818 101.2 582.908 101.044 583.632 97.8672C583.711 97.5229 583.798 97.1396 583.899 96.7096C584.245 95.234 585.446 94.2261 586.959 94.142C587.4 94.1174 587.793 94.0978 588.146 94.0803C591.4 93.9182 591.569 93.8568 594.167 91.8887C594.448 91.6755 594.761 91.438 595.115 91.1734C596.328 90.2652 597.896 90.2652 599.109 91.1734C599.463 91.438 599.776 91.6754 600.058 91.8887C602.655 93.8567 602.824 93.9182 606.079 94.0803C606.431 94.0978 606.824 94.1174 607.265 94.142C608.778 94.2261 609.98 95.234 610.325 96.7096C610.426 97.1396 610.513 97.5229 610.592 97.8672C611.317 101.044 611.407 101.2 613.796 103.416C614.055 103.656 614.343 103.924 614.665 104.226C615.77 105.263 616.042 106.807 615.358 108.16ZM597.112 96.4085C590.236 96.4085 584.642 102.002 584.642 108.878C584.642 115.754 590.236 121.348 597.112 121.348C603.988 121.348 609.582 115.754 609.582 108.878C609.582 102.002 603.988 96.4085 597.112 96.4085ZM597.112 119.848C591.064 119.848 586.143 114.927 586.143 108.878C586.143 102.83 591.064 97.9088 597.112 97.9088C603.161 97.9088 608.082 102.83 608.082 108.878C608.082 114.927 603.161 119.848 597.112 119.848ZM600.822 110.352H600.821C600.029 110.353 599.284 110.661 598.724 111.222C598.164 111.782 597.855 112.527 597.856 113.319C597.856 114.112 598.165 114.857 598.725 115.417C599.285 115.976 600.03 116.285 600.822 116.285H600.823C602.458 116.284 603.789 114.953 603.788 113.318C603.788 112.525 603.479 111.78 602.918 111.22C602.358 110.661 601.614 110.352 600.822 110.352ZM600.822 114.785H600.822C600.629 114.785 600.439 114.747 600.261 114.674C600.083 114.6 599.921 114.492 599.786 114.356C599.649 114.22 599.541 114.058 599.467 113.88C599.393 113.702 599.355 113.512 599.356 113.319C599.356 112.927 599.508 112.559 599.785 112.282C600.062 112.005 600.43 111.853 600.821 111.853H600.822C601.213 111.853 601.581 112.005 601.858 112.282C601.995 112.417 602.103 112.579 602.177 112.757C602.251 112.935 602.288 113.125 602.288 113.318C602.288 114.126 601.631 114.784 600.822 114.785ZM593.404 107.404C595.039 107.404 596.369 106.073 596.369 104.437C596.368 102.802 595.038 101.472 593.402 101.472H593.401C591.766 101.473 590.436 102.804 590.436 104.439C590.437 106.074 591.767 107.404 593.402 107.404H593.404ZM591.936 104.439C591.936 103.63 592.594 102.973 593.402 102.972H593.402C594.211 102.972 594.868 103.63 594.869 104.438C594.869 105.246 594.211 105.904 593.403 105.904H593.402C592.594 105.904 591.937 105.247 591.936 104.439ZM601.942 103.492L593.636 115.059C593.567 115.156 593.475 115.234 593.369 115.289C593.263 115.343 593.146 115.372 593.026 115.371C592.87 115.371 592.717 115.322 592.59 115.23C592.428 115.114 592.319 114.939 592.287 114.743C592.255 114.546 592.302 114.345 592.418 114.184L600.723 102.617C600.84 102.457 601.015 102.35 601.21 102.319C601.406 102.288 601.605 102.335 601.766 102.45C601.927 102.566 602.035 102.74 602.068 102.935C602.101 103.13 602.056 103.33 601.942 103.492Z" fill="black"/>
<path d="M636.868 233.99C645.171 237.013 649.495 246.217 646.009 254.337C621.907 310.483 580.293 357.355 527.396 387.934C519.746 392.357 510.094 389.154 506.11 381.267L456.626 283.305C452.642 275.418 455.869 265.867 463.257 261.02C484.245 247.251 501.206 228.147 512.393 205.677C516.331 197.767 525.433 193.431 533.737 196.454L636.868 233.99Z" fill="#ECC558"/>
<path d="M551 265.484C554.143 265.484 556.419 261.319 556.419 258.516C556.419 257.235 555.964 255.995 555.137 255.018C554.309 254.04 553.162 253.387 551.898 253.174C551.787 253.155 551.674 253.161 551.566 253.19C551.458 253.22 551.357 253.272 551.271 253.345C551.186 253.416 551.117 253.504 551.068 253.605C551.02 253.705 550.994 253.814 550.992 253.925C550.982 254.424 550.851 254.913 550.611 255.35C550.371 255.787 550.029 256.16 549.614 256.437C549.199 256.714 548.723 256.886 548.227 256.939C547.731 256.993 547.23 256.925 546.765 256.743C546.662 256.703 546.551 256.684 546.44 256.69C546.329 256.696 546.221 256.726 546.123 256.777C546.024 256.829 545.938 256.901 545.87 256.988C545.802 257.076 545.753 257.177 545.728 257.285C545.63 257.688 545.581 258.101 545.581 258.516C545.581 261.319 547.857 265.484 551 265.484ZM547.129 258.446C547.385 258.493 547.644 258.516 547.903 258.516C548.953 258.515 549.971 258.159 550.792 257.505C551.613 256.851 552.188 255.939 552.425 254.916C553.146 255.202 553.765 255.698 554.202 256.34C554.638 256.982 554.871 257.74 554.871 258.516C554.871 260.839 552.959 263.936 551 263.936C549.041 263.936 547.129 260.839 547.129 258.516V258.446Z" fill="black"/>
<path d="M574.226 290.258H562.613V289.484C562.613 289.279 562.531 289.082 562.386 288.936C562.241 288.791 562.044 288.71 561.839 288.71H557.968V281.603C558.42 281.443 558.811 281.147 559.088 280.756C559.365 280.366 559.515 279.899 559.516 279.419V270.609L568.381 266.173C568.529 266.101 568.65 265.983 568.727 265.836C568.804 265.69 568.831 265.523 568.806 265.36L567.459 257.339C567.448 257.008 567.367 256.683 567.219 256.386C567.072 256.088 566.863 255.826 566.606 255.617C566.349 255.407 566.05 255.255 565.73 255.17C565.409 255.086 565.074 255.071 564.747 255.127C564.42 255.183 564.109 255.308 563.835 255.494C563.56 255.68 563.329 255.923 563.156 256.205C562.983 256.488 562.873 256.805 562.833 257.134C562.792 257.463 562.823 257.797 562.923 258.114L563.697 262.581L559.292 264.439C559.507 263.838 559.766 263.253 560.066 262.689C560.221 262.352 560.298 261.984 560.29 261.613C560.291 261.132 560.142 260.664 559.864 260.271C559.587 259.879 559.195 259.582 558.742 259.422V257.742C558.742 255.689 557.926 253.719 556.474 252.268C555.022 250.816 553.053 250 551 250C548.947 250 546.978 250.816 545.526 252.268C544.074 253.719 543.258 255.689 543.258 257.742V259.422C542.805 259.582 542.413 259.879 542.136 260.271C541.858 260.664 541.709 261.132 541.71 261.613C541.711 261.984 541.799 262.35 541.965 262.681C542.262 263.244 542.52 263.826 542.739 264.423L538.334 262.565L539.108 258.098C539.127 257.537 538.942 256.988 538.587 256.553C538.232 256.118 537.731 255.826 537.178 255.732C536.624 255.637 536.055 255.746 535.576 256.039C535.097 256.332 534.74 256.788 534.572 257.324L533.194 265.36C533.168 265.522 533.195 265.689 533.27 265.835C533.345 265.981 533.465 266.099 533.612 266.173L542.484 270.609V279.419C542.485 279.899 542.635 280.366 542.912 280.756C543.189 281.147 543.58 281.443 544.032 281.603V288.71H540.161C539.956 288.71 539.759 288.791 539.614 288.936C539.469 289.082 539.387 289.279 539.387 289.484V290.258H527.774C527.569 290.258 527.372 290.34 527.227 290.485C527.082 290.63 527 290.827 527 291.032V297.226C527 297.431 527.082 297.628 527.227 297.773C527.372 297.918 527.569 298 527.774 298H540.161C540.367 298 540.564 297.918 540.709 297.773C540.854 297.628 540.935 297.431 540.935 297.226V296.452H561.065V297.226C561.065 297.431 561.146 297.628 561.291 297.773C561.436 297.918 561.633 298 561.839 298H574.226C574.431 298 574.628 297.918 574.773 297.773C574.918 297.628 575 297.431 575 297.226V291.032C575 290.827 574.918 290.63 574.773 290.485C574.628 290.34 574.431 290.258 574.226 290.258ZM544.032 260.839C544.238 260.839 544.435 260.757 544.58 260.612C544.725 260.467 544.806 260.27 544.806 260.065V257.742C544.806 256.099 545.459 254.524 546.62 253.362C547.782 252.201 549.357 251.548 551 251.548C552.643 251.548 554.218 252.201 555.379 253.362C556.541 254.524 557.194 256.099 557.194 257.742V260.065C557.194 260.27 557.275 260.467 557.42 260.612C557.565 260.757 557.762 260.839 557.968 260.839C558.173 260.839 558.37 260.92 558.515 261.065C558.66 261.211 558.742 261.408 558.742 261.613C558.742 261.737 558.713 261.859 558.657 261.969C558.189 262.839 557.818 263.758 557.55 264.71H554.097C553.891 264.71 553.695 264.791 553.549 264.936C553.404 265.082 553.323 265.279 553.323 265.484C553.323 266.1 553.078 266.691 552.642 267.126C552.207 267.562 551.616 267.806 551 267.806C550.384 267.806 549.793 267.562 549.358 267.126C548.922 266.691 548.677 266.1 548.677 265.484C548.677 265.279 548.596 265.082 548.451 264.936C548.305 264.791 548.109 264.71 547.903 264.71H544.45C544.181 263.762 543.813 262.846 543.351 261.977C543.288 261.859 543.257 261.727 543.26 261.593C543.264 261.46 543.302 261.33 543.37 261.215C543.439 261.101 543.536 261.006 543.652 260.94C543.768 260.874 543.899 260.839 544.032 260.839ZM543.606 269.44L534.827 265.05L536.066 257.595C536.1 257.416 536.197 257.255 536.339 257.14C536.48 257.026 536.658 256.964 536.84 256.968C536.949 256.969 537.056 256.993 537.154 257.038C537.253 257.084 537.341 257.149 537.413 257.231C537.483 257.315 537.534 257.413 537.564 257.519C537.593 257.624 537.6 257.734 537.583 257.843L536.739 262.914C536.712 263.085 536.743 263.26 536.827 263.412C536.911 263.564 537.044 263.682 537.204 263.75L542.987 266.196C543.073 266.233 543.165 266.254 543.258 266.258H547.206C547.384 267.133 547.859 267.92 548.55 268.485C549.242 269.05 550.107 269.359 551 269.359C551.893 269.359 552.758 269.05 553.45 268.485C554.141 267.92 554.616 267.133 554.794 266.258H558.742C558.846 266.258 558.948 266.237 559.044 266.196L564.827 263.75C564.987 263.682 565.12 263.564 565.204 263.412C565.288 263.26 565.319 263.085 565.292 262.914L564.448 257.843C564.431 257.734 564.438 257.624 564.467 257.519C564.497 257.413 564.548 257.315 564.618 257.231C564.69 257.149 564.778 257.084 564.877 257.038C564.975 256.993 565.082 256.969 565.191 256.968C565.373 256.964 565.551 257.026 565.692 257.14C565.834 257.255 565.931 257.416 565.965 257.595L567.204 265.05L558.394 269.44C558.266 269.504 558.159 269.603 558.083 269.724C558.008 269.846 557.968 269.986 557.968 270.129V279.419C557.968 279.625 557.886 279.822 557.741 279.967C557.596 280.112 557.399 280.194 557.194 280.194H544.806C544.601 280.194 544.404 280.112 544.259 279.967C544.114 279.822 544.032 279.625 544.032 279.419V270.129C544.032 269.986 543.992 269.846 543.917 269.724C543.841 269.603 543.734 269.504 543.606 269.44ZM556.419 281.742V288.71H551.774V281.742H556.419ZM550.226 281.742V288.71H545.581V281.742H550.226ZM573.452 296.452H562.613V295.677C562.613 295.472 562.531 295.275 562.386 295.13C562.241 294.985 562.044 294.903 561.839 294.903H540.161C539.956 294.903 539.759 294.985 539.614 295.13C539.469 295.275 539.387 295.472 539.387 295.677V296.452H528.548V291.806H540.161C540.367 291.806 540.564 291.725 540.709 291.58C540.854 291.435 540.935 291.238 540.935 291.032V290.258H561.065V291.032C561.065 291.238 561.146 291.435 561.291 291.58C561.436 291.725 561.633 291.806 561.839 291.806H573.452V296.452Z" fill="black"/>
<path d="M532.365 281.061C532.402 281.253 532.506 281.426 532.657 281.551C532.808 281.675 532.998 281.744 533.194 281.744C533.389 281.744 533.579 281.675 533.73 281.551C533.881 281.426 533.985 281.253 534.022 281.061C534.502 278.738 534.858 278.444 536.476 277.917C536.647 277.859 536.796 277.748 536.901 277.601C537.007 277.454 537.063 277.278 537.063 277.097C537.063 276.916 537.007 276.739 536.901 276.592C536.796 276.445 536.647 276.335 536.476 276.276C534.858 275.75 534.502 275.448 534.022 273.133C533.985 272.941 533.881 272.767 533.73 272.643C533.579 272.518 533.389 272.45 533.194 272.45C532.998 272.45 532.808 272.518 532.657 272.643C532.506 272.767 532.402 272.941 532.365 273.133C531.885 275.455 531.529 275.75 529.911 276.276C529.74 276.335 529.591 276.445 529.486 276.592C529.38 276.739 529.324 276.916 529.324 277.097C529.324 277.278 529.38 277.454 529.486 277.601C529.591 277.748 529.74 277.859 529.911 277.917C531.529 278.444 531.885 278.746 532.365 281.061ZM533.194 275.641C533.474 276.244 533.926 276.751 534.494 277.097C533.931 277.434 533.479 277.93 533.194 278.521C532.909 277.93 532.456 277.434 531.893 277.097C532.456 276.759 532.909 276.264 533.194 275.672V275.641ZM567.978 273.133C567.498 275.455 567.142 275.75 565.524 276.276C565.353 276.335 565.204 276.445 565.099 276.592C564.993 276.739 564.937 276.916 564.937 277.097C564.937 277.278 564.993 277.454 565.099 277.601C565.204 277.748 565.353 277.859 565.524 277.917C567.142 278.444 567.498 278.746 567.978 281.061C568.015 281.253 568.118 281.426 568.27 281.551C568.421 281.675 568.611 281.744 568.806 281.744C569.002 281.744 569.192 281.675 569.343 281.551C569.494 281.426 569.597 281.253 569.635 281.061C570.115 278.738 570.471 278.444 572.089 277.917C572.26 277.859 572.409 277.748 572.514 277.601C572.62 277.454 572.676 277.278 572.676 277.097C572.676 276.916 572.62 276.739 572.514 276.592C572.409 276.445 572.26 276.335 572.089 276.276C570.471 275.75 570.115 275.448 569.635 273.133C569.597 272.941 569.494 272.767 569.343 272.643C569.192 272.518 569.002 272.45 568.806 272.45C568.611 272.45 568.421 272.518 568.27 272.643C568.118 272.767 568.015 272.941 567.978 273.133ZM570.107 277.097C569.544 277.434 569.091 277.93 568.806 278.521C568.521 277.93 568.069 277.434 567.506 277.097C568.069 276.759 568.521 276.264 568.806 275.672C569.091 276.264 569.544 276.759 570.107 277.097Z" fill="black"/>
<path d="M551.774 270.903H550.226V272.452H551.774V270.903Z" fill="black"/>
<path d="M551.774 274H550.226V275.548H551.774V274Z" fill="black"/>
<path d="M551.774 277.097H550.226V278.645H551.774V277.097Z" fill="black"/>
<path d="M476.99 393.868C480.013 402.171 475.74 411.4 467.28 413.949C408.777 431.576 346.122 429.826 288.695 408.961C280.39 405.943 276.64 396.491 280.121 388.369L323.356 287.494C326.837 279.372 336.227 275.704 344.69 278.249C368.728 285.476 394.265 286.189 418.669 280.315C427.26 278.247 436.431 282.433 439.454 290.737L476.99 393.868Z" fill="#ECC558"/>
<path d="M385.193 339C385.405 339 385.609 339.084 385.759 339.234C385.909 339.384 385.993 339.588 385.993 339.8V343.8C385.993 344.012 385.909 344.216 385.759 344.366C385.609 344.516 385.405 344.6 385.193 344.6C384.981 344.6 384.778 344.516 384.628 344.366C384.478 344.216 384.393 344.012 384.393 343.8V339.8C384.393 339.588 384.478 339.384 384.628 339.234C384.778 339.084 384.981 339 385.193 339ZM371.619 349.759C371.693 349.835 371.781 349.895 371.879 349.937C371.977 349.979 372.081 350.001 372.187 350.002C372.294 350.002 372.399 349.982 372.497 349.942C372.595 349.902 372.684 349.842 372.759 349.767C372.834 349.692 372.894 349.603 372.934 349.505C372.974 349.407 372.994 349.302 372.994 349.196C372.993 349.089 372.971 348.985 372.929 348.887C372.887 348.789 372.827 348.701 372.751 348.627L369.921 345.8C369.847 345.724 369.759 345.664 369.662 345.622C369.564 345.581 369.459 345.559 369.354 345.558C369.248 345.558 369.143 345.578 369.045 345.618C368.947 345.659 368.858 345.718 368.783 345.793C368.708 345.868 368.649 345.957 368.608 346.055C368.568 346.153 368.548 346.258 368.549 346.364C368.549 346.469 368.571 346.574 368.612 346.672C368.654 346.769 368.714 346.857 368.79 346.931L371.619 349.759ZM366.8 361.405L362.8 361.407C362.588 361.407 362.384 361.491 362.234 361.641C362.084 361.792 362 361.995 362 362.207C362 362.419 362.084 362.623 362.234 362.773C362.385 362.923 362.588 363.007 362.8 363.007L366.8 363.005C366.905 363.005 367.009 362.985 367.106 362.944C367.203 362.904 367.291 362.845 367.365 362.771C367.44 362.697 367.499 362.608 367.539 362.511C367.579 362.414 367.6 362.31 367.6 362.205C367.6 362.1 367.579 361.996 367.539 361.899C367.498 361.802 367.439 361.714 367.365 361.64C367.291 361.565 367.203 361.506 367.106 361.466C367.008 361.426 366.905 361.405 366.8 361.405ZM398.78 374.641C398.706 374.565 398.618 374.505 398.521 374.463C398.423 374.421 398.318 374.399 398.212 374.398C398.106 374.398 398.001 374.418 397.903 374.458C397.805 374.498 397.715 374.558 397.64 374.633C397.565 374.708 397.506 374.797 397.466 374.895C397.426 374.993 397.405 375.098 397.406 375.204C397.407 375.311 397.429 375.415 397.47 375.513C397.512 375.611 397.573 375.699 397.649 375.773L400.478 378.6C400.552 378.676 400.64 378.736 400.738 378.778C400.835 378.819 400.94 378.841 401.046 378.842C401.152 378.842 401.257 378.822 401.355 378.782C401.453 378.741 401.542 378.682 401.617 378.607C401.692 378.532 401.751 378.443 401.791 378.345C401.831 378.247 401.852 378.142 401.851 378.036C401.85 377.931 401.829 377.826 401.787 377.728C401.746 377.631 401.685 377.543 401.61 377.469L398.78 374.641ZM371.619 374.641L368.79 377.469C368.714 377.543 368.654 377.631 368.612 377.728C368.571 377.826 368.549 377.931 368.549 378.036C368.548 378.142 368.568 378.247 368.608 378.345C368.649 378.443 368.708 378.532 368.783 378.607C368.858 378.682 368.947 378.741 369.045 378.782C369.143 378.822 369.248 378.842 369.354 378.842C369.459 378.841 369.564 378.819 369.662 378.778C369.759 378.736 369.847 378.676 369.921 378.6L372.751 375.773C372.827 375.699 372.887 375.611 372.929 375.513C372.971 375.415 372.993 375.311 372.994 375.204C372.994 375.098 372.974 374.993 372.934 374.895C372.894 374.797 372.834 374.708 372.759 374.633C372.684 374.558 372.595 374.498 372.497 374.458C372.399 374.418 372.294 374.398 372.187 374.398C372.081 374.399 371.977 374.421 371.879 374.463C371.781 374.505 371.693 374.565 371.619 374.641ZM407.6 361.393L403.6 361.395C403.388 361.395 403.184 361.479 403.034 361.629C402.884 361.779 402.8 361.983 402.8 362.195C402.8 362.407 402.884 362.61 403.034 362.76C403.185 362.91 403.388 362.995 403.6 362.995L407.601 362.993C407.813 362.993 408.016 362.909 408.166 362.759C408.316 362.608 408.4 362.405 408.4 362.193C408.4 361.981 408.316 361.777 408.166 361.627C408.016 361.477 407.812 361.393 407.6 361.393ZM398.206 349.985C398.312 349.985 398.416 349.965 398.513 349.924C398.61 349.884 398.698 349.825 398.772 349.751L401.6 346.921C401.75 346.771 401.834 346.567 401.834 346.355C401.834 346.143 401.75 345.939 401.6 345.789C401.45 345.639 401.246 345.555 401.034 345.555C400.822 345.555 400.618 345.64 400.468 345.79L397.64 348.62C397.529 348.731 397.452 348.874 397.422 349.029C397.391 349.184 397.407 349.345 397.467 349.491C397.528 349.638 397.63 349.763 397.762 349.85C397.894 349.938 398.048 349.985 398.206 349.985ZM397.508 367.892C398.635 365.754 399.205 363.367 399.166 360.95C399.126 358.533 398.478 356.166 397.282 354.066C396.158 352.046 394.544 350.343 392.589 349.112C390.633 347.882 388.398 347.164 386.092 347.026H386.09C385.497 346.993 384.901 346.993 384.308 347.026C382.001 347.164 379.767 347.882 377.811 349.112C375.855 350.343 374.241 352.046 373.118 354.066C371.921 356.166 371.273 358.533 371.234 360.95C371.194 363.367 371.764 365.754 372.892 367.892L378 377.598V381.4C378.002 382.885 378.592 384.308 379.642 385.358C380.692 386.408 382.115 386.998 383.6 387H386.8C388.284 386.998 389.708 386.408 390.758 385.358C391.808 384.308 392.398 382.885 392.4 381.4V377.598L397.508 367.892ZM379.6 380.6V378.2H390.8V380.6H379.6ZM374.511 354.852C375.491 353.057 376.914 351.543 378.645 350.453C380.375 349.362 382.356 348.732 384.398 348.623C384.932 348.593 385.466 348.593 386 348.623C388.042 348.732 390.023 349.362 391.754 350.452C393.485 351.543 394.908 353.057 395.889 354.852C396.953 356.719 397.53 358.825 397.565 360.974C397.601 363.122 397.094 365.246 396.092 367.147L391.117 376.6H386V369.919C386.423 369.982 386.85 370.016 387.278 370.02C387.969 370.053 388.659 369.948 389.308 369.71C389.957 369.473 390.552 369.107 391.058 368.636C393.562 366.185 392.648 361.444 392.608 361.243C392.588 361.14 392.547 361.042 392.489 360.954C392.431 360.867 392.355 360.792 392.268 360.734C392.18 360.675 392.082 360.635 391.979 360.615C391.876 360.594 391.77 360.595 391.667 360.616C388.227 361.304 386.197 364.566 385.2 366.747C384.202 364.566 382.172 361.304 378.733 360.616C378.63 360.595 378.524 360.595 378.421 360.615C378.317 360.635 378.219 360.675 378.132 360.734C378.044 360.792 377.969 360.867 377.911 360.955C377.852 361.042 377.812 361.14 377.792 361.243C377.752 361.444 376.838 366.185 379.342 368.636C379.847 369.108 380.442 369.473 381.092 369.71C381.741 369.948 382.431 370.053 383.121 370.02C383.549 370.016 383.976 369.982 384.4 369.919V376.6H379.283L374.307 367.147C373.305 365.246 372.799 363.122 372.834 360.974C372.87 358.825 373.447 356.719 374.511 354.852ZM386.263 368.349C386.868 366.783 388.429 363.484 391.159 362.425C391.291 363.887 391.205 366.253 389.939 367.493C389.133 368.28 387.899 368.569 386.263 368.349ZM384.136 368.349C382.505 368.57 381.269 368.281 380.463 367.495C379.115 366.179 379.126 363.731 379.246 362.427C381.972 363.488 383.531 366.784 384.136 368.349ZM386.8 385.4H383.6C382.678 385.399 381.785 385.08 381.071 384.497C380.357 383.914 379.866 383.103 379.681 382.2H390.719C390.533 383.103 390.042 383.914 389.328 384.497C388.614 385.08 387.721 385.399 386.8 385.4Z" fill="black"/>
<path d="M251.75 374.162C247.332 381.814 237.516 384.474 230.125 379.631C179.018 346.146 140.085 297.025 119.155 239.622C116.128 231.32 120.958 222.371 129.417 219.817L234.483 188.095C242.942 185.541 251.788 190.378 255.278 198.496C265.193 221.555 281.062 241.576 301.248 256.495C308.354 261.747 311.043 271.463 306.625 279.116L251.75 374.162Z" fill="#ECC558"/>
<path d="M221.707 281.046C220.264 281.046 218.854 280.618 217.654 279.817C216.454 279.015 215.519 277.875 214.966 276.542C214.414 275.209 214.27 273.742 214.551 272.327C214.833 270.911 215.528 269.611 216.548 268.591C217.569 267.57 218.869 266.875 220.284 266.594C221.699 266.312 223.166 266.457 224.5 267.009C225.833 267.561 226.972 268.496 227.774 269.696C228.576 270.896 229.004 272.307 229.004 273.75C229.002 275.684 228.232 277.539 226.864 278.907C225.497 280.275 223.642 281.044 221.707 281.046ZM221.707 268.3C220.629 268.3 219.576 268.619 218.679 269.218C217.783 269.817 217.085 270.668 216.672 271.664C216.26 272.66 216.152 273.756 216.362 274.813C216.572 275.871 217.091 276.842 217.854 277.604C218.616 278.366 219.587 278.885 220.644 279.096C221.701 279.306 222.797 279.198 223.793 278.785C224.789 278.373 225.64 277.674 226.239 276.778C226.838 275.882 227.158 274.828 227.158 273.75C227.156 272.305 226.581 270.92 225.559 269.898C224.538 268.876 223.152 268.301 221.707 268.3ZM215.409 297.256C215.164 297.256 214.929 297.159 214.756 296.986C214.583 296.813 214.485 296.578 214.485 296.333V292.997C214.485 292.753 214.583 292.518 214.756 292.345C214.929 292.172 215.164 292.074 215.409 292.074C215.653 292.074 215.888 292.172 216.061 292.345C216.234 292.518 216.332 292.753 216.332 292.997V296.333C216.332 296.578 216.234 296.813 216.061 296.986C215.888 297.159 215.653 297.256 215.409 297.256ZM228.006 297.256C227.761 297.256 227.527 297.159 227.354 296.986C227.18 296.813 227.083 296.578 227.083 296.333V292.997C227.083 292.753 227.18 292.518 227.354 292.345C227.527 292.172 227.761 292.074 228.006 292.074C228.251 292.074 228.486 292.172 228.659 292.345C228.832 292.518 228.929 292.753 228.929 292.997V296.333C228.929 296.578 228.832 296.813 228.659 296.986C228.486 297.159 228.251 297.256 228.006 297.256Z" fill="black"/>
<path d="M232.401 298H211.014C210.769 298 210.535 297.903 210.361 297.73C210.188 297.557 210.091 297.322 210.091 297.077V291.226C210.091 286.453 213.974 282.572 218.745 282.572H224.668C229.441 282.572 233.322 286.455 233.322 291.226V297.077C233.322 297.321 233.225 297.556 233.052 297.729C232.879 297.902 232.645 297.999 232.401 298ZM211.937 296.154H231.478V291.226C231.475 289.422 230.757 287.691 229.481 286.415C228.205 285.139 226.475 284.421 224.67 284.419H218.747C216.943 284.421 215.212 285.139 213.936 286.415C212.66 287.691 211.942 289.422 211.94 291.226L211.937 296.154Z" fill="black"/>
<path d="M218.439 284.424C218.281 284.424 218.126 284.383 217.988 284.306C217.85 284.229 217.735 284.118 217.652 283.983C217.57 283.848 217.523 283.695 217.517 283.537C217.511 283.38 217.545 283.223 217.616 283.082C218.668 281.015 217.764 279.861 217.726 279.814C217.732 279.822 217.736 279.826 217.736 279.826L219.125 278.609C219.198 278.693 220.902 280.694 219.262 283.917C219.185 284.069 219.068 284.197 218.922 284.287C218.777 284.376 218.609 284.424 218.439 284.424ZM224.976 284.424C224.805 284.424 224.638 284.377 224.493 284.287C224.347 284.198 224.23 284.07 224.152 283.918C222.513 280.694 224.217 278.693 224.29 278.611L225.678 279.827C225.678 279.827 225.683 279.823 225.689 279.814C225.651 279.862 224.747 281.015 225.798 283.082C225.87 283.223 225.904 283.38 225.898 283.538C225.892 283.695 225.845 283.849 225.763 283.984C225.68 284.118 225.565 284.23 225.427 284.307C225.289 284.384 225.134 284.424 224.976 284.424V284.424ZM206.481 275.014C205.643 275.014 204.824 274.766 204.128 274.3C203.431 273.835 202.888 273.173 202.567 272.399C202.247 271.625 202.163 270.773 202.326 269.951C202.49 269.129 202.893 268.374 203.486 267.782C204.078 267.189 204.833 266.786 205.655 266.623C206.477 266.459 207.329 266.543 208.103 266.864C208.877 267.185 209.538 267.728 210.004 268.424C210.469 269.121 210.718 269.94 210.718 270.778C210.716 271.901 210.27 272.978 209.475 273.772C208.681 274.566 207.604 275.013 206.481 275.014ZM206.481 268.388C206.008 268.388 205.546 268.528 205.153 268.791C204.76 269.053 204.454 269.427 204.273 269.864C204.092 270.3 204.045 270.781 204.137 271.245C204.229 271.708 204.457 272.134 204.791 272.468C205.125 272.803 205.551 273.03 206.015 273.123C206.479 273.215 206.959 273.167 207.396 272.987C207.833 272.806 208.206 272.499 208.469 272.106C208.731 271.713 208.871 271.251 208.871 270.778C208.871 270.145 208.619 269.537 208.171 269.089C207.723 268.641 207.115 268.389 206.481 268.388ZM212.04 284.398H200.923C200.678 284.398 200.443 284.301 200.27 284.128C200.097 283.955 200 283.72 200 283.475V281.975C200.016 280.267 200.706 278.634 201.92 277.432C203.134 276.229 204.773 275.555 206.481 275.555C208.19 275.555 209.829 276.229 211.043 277.432C212.257 278.634 212.947 280.267 212.963 281.975V283.475C212.963 283.72 212.866 283.955 212.693 284.128C212.52 284.301 212.285 284.398 212.04 284.398ZM201.846 282.552H211.117V281.975C211.103 280.755 210.609 279.589 209.741 278.731C208.873 277.873 207.702 277.391 206.481 277.391C205.261 277.391 204.09 277.873 203.222 278.731C202.354 279.589 201.86 280.755 201.846 281.975V282.552ZM236.934 275.014C236.096 275.014 235.277 274.766 234.58 274.3C233.883 273.835 233.34 273.173 233.019 272.399C232.699 271.625 232.615 270.773 232.778 269.951C232.942 269.13 233.345 268.375 233.938 267.782C234.53 267.19 235.285 266.786 236.107 266.623C236.929 266.459 237.781 266.543 238.555 266.864C239.329 267.185 239.99 267.728 240.456 268.424C240.921 269.121 241.17 269.94 241.17 270.778C241.168 271.901 240.722 272.978 239.928 273.772C239.133 274.566 238.057 275.013 236.934 275.014ZM236.934 268.388C236.461 268.388 235.999 268.528 235.606 268.791C235.213 269.053 234.906 269.426 234.725 269.863C234.544 270.3 234.497 270.781 234.589 271.244C234.681 271.708 234.909 272.134 235.243 272.468C235.577 272.803 236.003 273.03 236.467 273.122C236.93 273.215 237.411 273.167 237.848 272.987C238.285 272.806 238.658 272.499 238.921 272.106C239.183 271.713 239.323 271.251 239.323 270.778C239.323 270.145 239.071 269.537 238.623 269.089C238.175 268.641 237.567 268.389 236.934 268.388ZM242.492 284.398H231.375C231.13 284.398 230.895 284.301 230.722 284.128C230.549 283.955 230.452 283.72 230.452 283.475V281.975C230.468 280.267 231.158 278.634 232.372 277.432C233.586 276.229 235.225 275.555 236.933 275.555C238.642 275.555 240.281 276.229 241.495 277.432C242.709 278.634 243.399 280.267 243.415 281.975V283.475C243.415 283.72 243.318 283.955 243.145 284.128C242.971 284.301 242.737 284.398 242.492 284.398ZM232.298 282.552H241.569V281.975C241.555 280.755 241.061 279.589 240.193 278.731C239.325 277.873 238.154 277.391 236.933 277.391C235.713 277.391 234.542 277.873 233.674 278.731C232.806 279.589 232.312 280.755 232.298 281.975V282.552ZM226.047 265.202C225.898 265.202 225.75 265.166 225.618 265.097L221.707 263.038L217.797 265.094C217.645 265.174 217.473 265.21 217.302 265.198C217.13 265.186 216.965 265.126 216.826 265.025C216.687 264.924 216.578 264.786 216.513 264.627C216.448 264.467 216.429 264.293 216.457 264.123L217.207 259.769L214.044 256.686C213.921 256.566 213.834 256.413 213.792 256.246C213.751 256.079 213.757 255.904 213.81 255.74C213.863 255.576 213.961 255.431 214.092 255.32C214.223 255.209 214.383 255.136 214.554 255.111L218.925 254.477L220.88 250.515C220.956 250.36 221.074 250.23 221.221 250.139C221.367 250.048 221.536 250 221.708 250C221.88 250 222.049 250.048 222.196 250.139C222.342 250.23 222.46 250.36 222.536 250.515L224.491 254.477L228.863 255.111C229.033 255.136 229.193 255.208 229.325 255.319C229.456 255.43 229.555 255.576 229.608 255.739C229.661 255.903 229.667 256.079 229.626 256.246C229.585 256.413 229.498 256.565 229.374 256.686L226.211 259.769L226.958 264.123C226.98 264.256 226.974 264.392 226.938 264.521C226.903 264.651 226.84 264.772 226.753 264.874C226.667 264.977 226.559 265.06 226.437 265.116C226.315 265.173 226.182 265.202 226.048 265.202H226.047ZM221.707 261.077C221.857 261.077 222.005 261.113 222.137 261.182L224.823 262.592L224.311 259.603C224.285 259.456 224.296 259.304 224.342 259.162C224.389 259.019 224.469 258.89 224.576 258.786L226.748 256.669L223.747 256.233C223.6 256.211 223.46 256.153 223.339 256.066C223.219 255.978 223.121 255.862 223.055 255.728L221.707 253.008L220.366 255.728C220.299 255.862 220.201 255.977 220.08 256.065C219.959 256.152 219.818 256.209 219.67 256.23L216.67 256.667L218.842 258.783C218.949 258.888 219.029 259.017 219.076 259.159C219.122 259.302 219.133 259.453 219.107 259.601L218.592 262.592L221.276 261.18C221.409 261.111 221.557 261.076 221.707 261.077Z" fill="black"/>
<path d="M123.846 198.116C115.202 199.954 106.658 194.439 105.311 185.705C95.9977 125.32 106.45 63.5185 135.104 9.55446C139.249 1.74989 149.131 -0.648651 156.689 3.92888L250.566 60.7819C258.124 65.3594 260.449 75.169 256.752 83.195C246.25 105.993 241.989 131.183 244.41 156.166C245.262 164.961 239.841 173.461 231.197 175.298L123.846 198.116Z" fill="#ECC558"/>
<path d="M202.959 104.566C202.977 104.512 202.991 104.456 203 104.4C203 104.39 203 104.381 203 104.371C203.003 104.251 202.983 104.131 202.943 104.018C202.943 104.01 202.943 104 202.937 103.991C202.889 103.858 202.813 103.737 202.714 103.636L194.5 95.4L193.044 93.938H193.038L191.89 92.782L196.948 87.707C197.136 87.5187 197.241 87.2636 197.24 86.9979C197.239 86.7322 197.133 86.4775 196.945 86.29C196.852 86.1972 196.741 86.1236 196.62 86.0735C196.498 86.0234 196.368 85.9978 196.236 85.998C195.97 85.9986 195.716 86.1047 195.528 86.293L189.766 92.075C189.579 92.2625 189.473 92.5169 189.473 92.782C189.473 93.0472 189.579 93.3015 189.766 93.489L190.871 94.6L187.994 97.135H183.664C182.563 97.1345 181.501 97.538 180.678 98.269L170.518 107.269C170.332 107.432 170.214 107.659 170.186 107.904C170.157 108.15 170.221 108.398 170.364 108.599C170.464 108.747 172.964 112.199 176.23 111.418C178.483 110.876 181.114 108.544 182.243 107.461C184.071 108.344 186.134 108.619 188.129 108.245C191.938 107.545 192.842 105.972 192.984 105.662C193.098 105.419 193.111 105.14 193.021 104.887C192.932 104.634 192.746 104.426 192.505 104.308C192.388 104.251 192.261 104.218 192.131 104.211C192.002 104.204 191.872 104.222 191.749 104.266C191.627 104.309 191.514 104.377 191.418 104.464C191.322 104.551 191.244 104.657 191.189 104.775C191.183 104.785 190.56 105.766 187.77 106.275C186.014 106.627 184.19 106.315 182.652 105.398C182.456 105.26 182.217 105.196 181.979 105.219C181.74 105.243 181.518 105.351 181.352 105.524C180.452 106.465 177.696 109.006 175.762 109.472C174.489 109.772 173.272 108.819 172.583 108.116L182.007 99.764C182.464 99.3585 183.053 99.1346 183.664 99.135H188.372C188.616 99.1352 188.851 99.0463 189.034 98.885L192.289 96.018L192.889 96.618L200.52 104.284L197.359 106.916C197.227 107.026 197.126 107.167 197.064 107.328C197.003 107.488 196.984 107.661 197.009 107.831C197.179 108.996 197.369 112.595 196.053 113.805C194.66 115.085 193.011 116.791 192.089 117.763L183.366 109.011C183.273 108.918 183.163 108.844 183.041 108.793C182.92 108.743 182.79 108.716 182.658 108.716C182.392 108.715 182.137 108.821 181.949 109.008C181.761 109.196 181.655 109.45 181.654 109.716C181.654 109.982 181.759 110.237 181.946 110.425L191.427 119.937L192.104 120.615C192.351 120.864 192.49 121.201 192.49 121.552C192.49 121.903 192.351 122.24 192.104 122.489C191.863 122.734 191.535 122.873 191.191 122.876C190.848 122.879 190.517 122.747 190.271 122.507L183.788 116.007C183.601 115.819 183.346 115.713 183.08 115.712C182.814 115.711 182.559 115.817 182.371 116.004C182.183 116.192 182.077 116.446 182.076 116.712C182.076 116.978 182.181 117.233 182.368 117.421L188.868 123.938C189.309 124.325 189.592 124.863 189.66 125.446C189.648 125.575 189.607 125.7 189.541 125.812C189.475 125.923 189.385 126.019 189.277 126.091C188.955 126.358 188.205 126.991 187 125.791L181.241 120.013C181.148 119.92 181.038 119.846 180.916 119.795C180.795 119.745 180.665 119.718 180.533 119.718C180.402 119.718 180.271 119.743 180.15 119.794C180.028 119.844 179.917 119.917 179.824 120.01C179.731 120.103 179.657 120.213 179.606 120.335C179.556 120.456 179.529 120.586 179.529 120.718C179.529 120.849 179.554 120.98 179.605 121.101C179.655 121.223 179.728 121.334 179.821 121.427L185.568 127.2C185.808 127.45 185.94 127.784 185.938 128.13C185.936 128.477 185.799 128.809 185.556 129.056C185.435 129.178 185.291 129.275 185.132 129.341C184.973 129.407 184.802 129.441 184.63 129.441C184.458 129.442 184.288 129.408 184.129 129.343C183.971 129.278 183.826 129.181 183.705 129.06L182.968 128.321C182.945 128.298 182.915 128.29 182.891 128.27C182.856 127.561 182.592 126.883 182.137 126.338C181.683 125.793 181.063 125.411 180.372 125.249C180.548 124.675 180.566 124.064 180.423 123.481C180.28 122.898 179.982 122.364 179.56 121.937C179.221 121.603 178.811 121.349 178.36 121.196C178.846 120.558 179.084 119.766 179.032 118.966C178.98 118.165 178.641 117.411 178.077 116.841C177.499 116.291 176.745 115.963 175.949 115.912C175.153 115.862 174.364 116.093 173.721 116.566C173.558 116.128 173.303 115.729 172.974 115.397C172.341 114.792 171.5 114.454 170.624 114.454C169.749 114.454 168.907 114.792 168.274 115.397L165.914 117.766C165.165 116.966 163.499 115.219 161.96 113.806C160.644 112.6 160.834 109 161 107.834C161.025 107.664 161.006 107.491 160.944 107.331C160.883 107.17 160.781 107.029 160.649 106.919L157.492 104.287L165.717 96.016L168.977 98.888C169.16 99.0493 169.395 99.1382 169.639 99.138H174.348C174.982 99.143 175.593 99.3831 176.06 99.812L176.287 99.986C176.497 100.148 176.763 100.22 177.027 100.185C177.29 100.151 177.529 100.014 177.691 99.8035C177.852 99.5932 177.924 99.3272 177.89 99.064C177.856 98.8008 177.718 98.5619 177.508 98.4L177.334 98.27C176.511 97.5396 175.449 97.1362 174.348 97.136H170.017L167.134 94.596L168.234 93.496C168.422 93.3085 168.527 93.0542 168.527 92.789C168.527 92.5239 168.422 92.2695 168.234 92.082L162.472 86.293C162.285 86.1047 162.03 85.9986 161.764 85.998C161.498 85.9975 161.243 86.1025 161.055 86.29C160.867 86.4775 160.761 86.7322 160.76 86.9979C160.76 87.2636 160.865 87.5187 161.052 87.707L166.11 92.782L155.29 103.639C155.145 103.786 155.05 103.975 155.017 104.179C154.984 104.383 155.016 104.592 155.107 104.777C155.129 104.815 155.153 104.851 155.18 104.885C155.211 104.946 155.249 105.003 155.293 105.056C155.306 105.069 155.324 105.073 155.338 105.086C155.352 105.099 155.357 105.115 155.37 105.126L158.953 108.109C158.803 109.615 158.638 113.474 160.604 115.282C162.104 116.664 163.79 118.432 164.504 119.188L164.482 119.211C163.862 119.836 163.514 120.681 163.514 121.561C163.514 122.441 163.862 123.286 164.482 123.911C165.092 124.524 165.918 124.872 166.782 124.88C166.787 125.751 167.135 126.584 167.751 127.2C168.366 127.815 169.2 128.164 170.07 128.169C170.076 129.036 170.422 129.867 171.034 130.482C171.503 130.956 172.106 131.277 172.761 131.402C173.416 131.527 174.094 131.45 174.705 131.182C174.857 131.703 175.135 132.177 175.515 132.564C175.822 132.874 176.187 133.12 176.59 133.288C176.993 133.455 177.425 133.541 177.861 133.54C178.162 133.535 178.461 133.49 178.75 133.404C179.343 133.796 180.039 134.004 180.75 134.004C181.184 134.011 181.616 133.932 182.02 133.771C182.423 133.61 182.791 133.371 183.101 133.067C183.557 132.609 183.859 132.02 183.966 131.383C184.184 131.427 184.406 131.449 184.629 131.449C185.448 131.448 186.237 131.144 186.845 130.595C187.452 130.046 187.834 129.291 187.916 128.476C188.391 128.531 188.872 128.483 189.328 128.337C189.783 128.191 190.202 127.949 190.556 127.628C190.875 127.378 191.138 127.065 191.327 126.707C191.517 126.349 191.629 125.955 191.656 125.551C191.667 125.316 191.65 125.081 191.605 124.851C192.33 124.76 193.005 124.429 193.521 123.912C194.141 123.287 194.489 122.442 194.489 121.562C194.489 120.682 194.141 119.837 193.521 119.212L193.502 119.193C194.402 118.245 196.052 116.534 197.402 115.293C199.369 113.485 199.202 109.626 199.054 108.12L202.637 105.137C202.655 105.122 202.663 105.098 202.681 105.082C202.699 105.066 202.696 105.073 202.703 105.067C202.724 105.04 202.742 105.012 202.759 104.982C202.818 104.915 202.868 104.841 202.907 104.761C202.931 104.698 202.948 104.633 202.959 104.566ZM165.9 120.626L169.7 116.813C169.95 116.573 170.284 116.44 170.63 116.44C170.977 116.44 171.31 116.573 171.56 116.813C171.801 117.057 171.938 117.385 171.942 117.728C171.946 118.071 171.817 118.402 171.582 118.652L167.743 122.5L167.729 122.517C167.476 122.747 167.143 122.87 166.801 122.859C166.459 122.848 166.135 122.705 165.897 122.459C165.659 122.213 165.527 121.884 165.527 121.542C165.528 121.2 165.661 120.871 165.9 120.626ZM169.165 125.785C168.922 125.54 168.785 125.209 168.782 124.864C168.779 124.518 168.911 124.185 169.15 123.936C169.159 123.928 169.169 123.922 169.177 123.914L172.977 120.102C172.997 120.081 173.01 120.057 173.03 120.036L174.8 118.257C174.922 118.134 175.066 118.037 175.226 117.971C175.385 117.904 175.556 117.87 175.729 117.87C175.902 117.87 176.073 117.904 176.232 117.971C176.392 118.037 176.536 118.134 176.658 118.257C176.905 118.506 177.044 118.843 177.044 119.194C177.044 119.545 176.905 119.882 176.658 120.131L171.02 125.786C170.898 125.909 170.754 126.006 170.594 126.072C170.435 126.139 170.264 126.173 170.091 126.173C169.918 126.173 169.747 126.139 169.588 126.072C169.428 126.006 169.284 125.909 169.162 125.786L169.165 125.785ZM172.453 129.072C172.206 128.823 172.068 128.486 172.068 128.135C172.068 127.784 172.206 127.447 172.453 127.198L176.287 123.354C176.41 123.232 176.556 123.136 176.716 123.07C176.877 123.004 177.048 122.971 177.222 122.972C177.395 122.973 177.566 123.008 177.726 123.075C177.886 123.142 178.031 123.239 178.153 123.363C178.274 123.486 178.371 123.631 178.437 123.792C178.502 123.952 178.535 124.124 178.535 124.297C178.534 124.47 178.499 124.642 178.432 124.801C178.365 124.961 178.267 125.106 178.144 125.228L177.252 126.123L175.518 127.861L175.507 127.875L174.315 129.075C174.064 129.316 173.73 129.451 173.381 129.451C173.033 129.45 172.699 129.314 172.449 129.072H172.453ZM176.93 131.15C176.685 130.901 176.548 130.566 176.548 130.217C176.548 129.868 176.685 129.533 176.93 129.284L178.67 127.538C178.791 127.415 178.936 127.318 179.095 127.252C179.255 127.185 179.425 127.151 179.598 127.151C179.771 127.151 179.942 127.185 180.101 127.252C180.26 127.318 180.405 127.415 180.526 127.538C180.773 127.787 180.912 128.124 180.912 128.475C180.912 128.826 180.773 129.163 180.526 129.412L178.789 131.15C178.539 131.39 178.206 131.524 177.86 131.524C177.513 131.524 177.18 131.39 176.93 131.15ZM181.683 131.65C181.44 131.859 181.128 131.97 180.808 131.962L181.939 130.826C181.963 130.803 181.978 130.775 182 130.752C182.015 130.916 181.994 131.081 181.939 131.236C181.885 131.391 181.797 131.532 181.683 131.65Z" fill="#1C1C1B"/>
<rect x="270" y="19" width="231.089" height="231.089" rx="115.545" fill="#ECC558"/>
<path d="M365.734 115.133H368.137C367.941 117.047 367.414 118.701 366.555 120.094C365.695 121.474 364.523 122.535 363.039 123.277C361.555 124.02 359.764 124.391 357.668 124.391C356.053 124.391 354.589 124.085 353.273 123.473C351.971 122.861 350.852 121.995 349.914 120.875C348.977 119.742 348.254 118.388 347.746 116.812C347.238 115.237 346.984 113.486 346.984 111.559V108.004C346.984 106.077 347.238 104.332 347.746 102.77C348.254 101.194 348.983 99.8398 349.934 98.707C350.884 97.5742 352.023 96.7018 353.352 96.0898C354.68 95.4779 356.177 95.1719 357.844 95.1719C359.862 95.1719 361.607 95.543 363.078 96.2852C364.549 97.0143 365.708 98.069 366.555 99.4492C367.414 100.829 367.941 102.496 368.137 104.449H365.734C365.552 102.913 365.148 101.611 364.523 100.543C363.898 99.4753 363.033 98.6615 361.926 98.1016C360.832 97.5286 359.471 97.2422 357.844 97.2422C356.516 97.2422 355.331 97.4961 354.289 98.0039C353.247 98.5117 352.362 99.2409 351.633 100.191C350.904 101.129 350.344 102.255 349.953 103.57C349.576 104.885 349.387 106.35 349.387 107.965V111.559C349.387 113.121 349.569 114.56 349.934 115.875C350.298 117.19 350.832 118.329 351.535 119.293C352.251 120.257 353.124 121.005 354.152 121.539C355.181 122.073 356.353 122.34 357.668 122.34C359.348 122.34 360.747 122.073 361.867 121.539C363 120.992 363.879 120.185 364.504 119.117C365.129 118.049 365.539 116.721 365.734 115.133ZM372.16 113.766V113.121C372.16 111.585 372.382 110.165 372.824 108.863C373.267 107.561 373.898 106.435 374.719 105.484C375.552 104.534 376.548 103.798 377.707 103.277C378.866 102.743 380.155 102.477 381.574 102.477C383.007 102.477 384.302 102.743 385.461 103.277C386.62 103.798 387.616 104.534 388.449 105.484C389.283 106.435 389.921 107.561 390.363 108.863C390.806 110.165 391.027 111.585 391.027 113.121V113.766C391.027 115.302 390.806 116.721 390.363 118.023C389.921 119.312 389.283 120.432 388.449 121.383C387.629 122.333 386.639 123.076 385.48 123.609C384.322 124.13 383.033 124.391 381.613 124.391C380.181 124.391 378.885 124.13 377.727 123.609C376.568 123.076 375.572 122.333 374.738 121.383C373.905 120.432 373.267 119.312 372.824 118.023C372.382 116.721 372.16 115.302 372.16 113.766ZM374.484 113.121V113.766C374.484 114.924 374.641 116.025 374.953 117.066C375.266 118.095 375.721 119.013 376.32 119.82C376.919 120.615 377.661 121.24 378.547 121.695C379.432 122.151 380.454 122.379 381.613 122.379C382.759 122.379 383.768 122.151 384.641 121.695C385.526 121.24 386.268 120.615 386.867 119.82C387.466 119.013 387.915 118.095 388.215 117.066C388.527 116.025 388.684 114.924 388.684 113.766V113.121C388.684 111.975 388.527 110.888 388.215 109.859C387.915 108.831 387.46 107.913 386.848 107.105C386.249 106.298 385.507 105.66 384.621 105.191C383.736 104.723 382.72 104.488 381.574 104.488C380.428 104.488 379.413 104.723 378.527 105.191C377.655 105.66 376.913 106.298 376.301 107.105C375.702 107.913 375.246 108.831 374.934 109.859C374.634 110.888 374.484 111.975 374.484 113.121ZM398.195 106.363V124H395.871V102.867H398.137L398.195 106.363ZM405.676 102.711L405.617 104.859C405.357 104.82 405.103 104.788 404.855 104.762C404.608 104.736 404.341 104.723 404.055 104.723C403.039 104.723 402.147 104.911 401.379 105.289C400.624 105.654 399.986 106.168 399.465 106.832C398.944 107.483 398.547 108.251 398.273 109.137C398 110.009 397.844 110.947 397.805 111.949L396.945 112.281C396.945 110.901 397.089 109.618 397.375 108.434C397.661 107.249 398.098 106.214 398.684 105.328C399.283 104.43 400.031 103.733 400.93 103.238C401.841 102.73 402.909 102.477 404.133 102.477C404.432 102.477 404.725 102.503 405.012 102.555C405.311 102.594 405.533 102.646 405.676 102.711ZM417.121 124.391C415.741 124.391 414.471 124.137 413.312 123.629C412.167 123.121 411.164 122.405 410.305 121.48C409.458 120.556 408.801 119.462 408.332 118.199C407.876 116.923 407.648 115.53 407.648 114.02V113.18C407.648 111.552 407.889 110.081 408.371 108.766C408.853 107.451 409.517 106.324 410.363 105.387C411.21 104.449 412.173 103.733 413.254 103.238C414.348 102.73 415.493 102.477 416.691 102.477C418.033 102.477 419.224 102.717 420.266 103.199C421.307 103.668 422.18 104.339 422.883 105.211C423.599 106.07 424.139 107.092 424.504 108.277C424.868 109.449 425.051 110.745 425.051 112.164V113.59H409.055V111.598H422.727V111.324C422.701 110.139 422.46 109.033 422.004 108.004C421.561 106.962 420.897 106.116 420.012 105.465C419.126 104.814 418.02 104.488 416.691 104.488C415.702 104.488 414.79 104.697 413.957 105.113C413.137 105.53 412.427 106.129 411.828 106.91C411.242 107.678 410.786 108.596 410.461 109.664C410.148 110.719 409.992 111.891 409.992 113.18V114.02C409.992 115.191 410.161 116.285 410.5 117.301C410.852 118.303 411.346 119.189 411.984 119.957C412.635 120.725 413.404 121.324 414.289 121.754C415.174 122.184 416.151 122.398 417.219 122.398C418.469 122.398 419.576 122.171 420.539 121.715C421.503 121.246 422.368 120.51 423.137 119.508L424.602 120.641C424.146 121.318 423.573 121.943 422.883 122.516C422.206 123.089 421.392 123.544 420.441 123.883C419.491 124.221 418.384 124.391 417.121 124.391ZM339.406 167.465L348.371 142.562H350.988L340.402 171H338.469L339.406 167.465ZM330.148 142.562L339.074 167.465L340.051 171H338.098L327.531 142.562H330.148ZM366.613 167.211V156.312C366.613 155.31 366.405 154.444 365.988 153.715C365.572 152.986 364.96 152.426 364.152 152.035C363.345 151.645 362.349 151.449 361.164 151.449C360.07 151.449 359.094 151.645 358.234 152.035C357.388 152.413 356.717 152.927 356.223 153.578C355.741 154.216 355.5 154.926 355.5 155.707L353.156 155.688C353.156 154.893 353.352 154.125 353.742 153.383C354.133 152.641 354.686 151.977 355.402 151.391C356.118 150.805 356.971 150.342 357.961 150.004C358.964 149.652 360.064 149.477 361.262 149.477C362.772 149.477 364.1 149.73 365.246 150.238C366.405 150.746 367.31 151.508 367.961 152.523C368.612 153.539 368.938 154.815 368.938 156.352V166.566C368.938 167.296 368.99 168.051 369.094 168.832C369.211 169.613 369.374 170.258 369.582 170.766V171H367.102C366.945 170.531 366.822 169.945 366.73 169.242C366.652 168.526 366.613 167.849 366.613 167.211ZM367.16 158.695L367.199 160.492H362.609C361.411 160.492 360.337 160.603 359.387 160.824C358.449 161.033 357.655 161.345 357.004 161.762C356.353 162.165 355.852 162.654 355.5 163.227C355.161 163.799 354.992 164.451 354.992 165.18C354.992 165.935 355.181 166.625 355.559 167.25C355.949 167.875 356.496 168.376 357.199 168.754C357.915 169.118 358.762 169.301 359.738 169.301C361.04 169.301 362.186 169.06 363.176 168.578C364.178 168.096 365.005 167.465 365.656 166.684C366.307 165.902 366.743 165.049 366.965 164.125L367.98 165.473C367.811 166.124 367.499 166.794 367.043 167.484C366.6 168.161 366.021 168.799 365.305 169.398C364.589 169.984 363.742 170.466 362.766 170.844C361.802 171.208 360.708 171.391 359.484 171.391C358.104 171.391 356.9 171.13 355.871 170.609C354.855 170.089 354.061 169.379 353.488 168.48C352.928 167.569 352.648 166.54 352.648 165.395C352.648 164.353 352.87 163.422 353.312 162.602C353.755 161.768 354.393 161.065 355.227 160.492C356.073 159.906 357.089 159.464 358.273 159.164C359.471 158.852 360.812 158.695 362.297 158.695H367.16ZM377.805 141V171H375.48V141H377.805ZM397.727 166.117V149.867H400.07V171H397.824L397.727 166.117ZM398.156 162.211L399.367 162.172C399.367 163.5 399.211 164.724 398.898 165.844C398.586 166.964 398.098 167.94 397.434 168.773C396.77 169.607 395.91 170.251 394.855 170.707C393.801 171.163 392.531 171.391 391.047 171.391C390.018 171.391 389.074 171.247 388.215 170.961C387.368 170.661 386.639 170.193 386.027 169.555C385.415 168.917 384.94 168.09 384.602 167.074C384.276 166.059 384.113 164.828 384.113 163.383V149.867H386.438V163.422C386.438 164.555 386.561 165.499 386.809 166.254C387.069 167.009 387.421 167.615 387.863 168.07C388.319 168.526 388.84 168.852 389.426 169.047C390.012 169.242 390.643 169.34 391.32 169.34C393.039 169.34 394.393 169.008 395.383 168.344C396.385 167.68 397.095 166.807 397.512 165.727C397.941 164.633 398.156 163.461 398.156 162.211ZM414.348 171.391C412.967 171.391 411.698 171.137 410.539 170.629C409.393 170.121 408.391 169.405 407.531 168.48C406.685 167.556 406.027 166.462 405.559 165.199C405.103 163.923 404.875 162.53 404.875 161.02V160.18C404.875 158.552 405.116 157.081 405.598 155.766C406.079 154.451 406.743 153.324 407.59 152.387C408.436 151.449 409.4 150.733 410.48 150.238C411.574 149.73 412.72 149.477 413.918 149.477C415.259 149.477 416.451 149.717 417.492 150.199C418.534 150.668 419.406 151.339 420.109 152.211C420.826 153.07 421.366 154.092 421.73 155.277C422.095 156.449 422.277 157.745 422.277 159.164V160.59H406.281V158.598H419.953V158.324C419.927 157.139 419.686 156.033 419.23 155.004C418.788 153.962 418.124 153.116 417.238 152.465C416.353 151.814 415.246 151.488 413.918 151.488C412.928 151.488 412.017 151.697 411.184 152.113C410.363 152.53 409.654 153.129 409.055 153.91C408.469 154.678 408.013 155.596 407.688 156.664C407.375 157.719 407.219 158.891 407.219 160.18V161.02C407.219 162.191 407.388 163.285 407.727 164.301C408.078 165.303 408.573 166.189 409.211 166.957C409.862 167.725 410.63 168.324 411.516 168.754C412.401 169.184 413.378 169.398 414.445 169.398C415.695 169.398 416.802 169.171 417.766 168.715C418.729 168.246 419.595 167.51 420.363 166.508L421.828 167.641C421.372 168.318 420.799 168.943 420.109 169.516C419.432 170.089 418.618 170.544 417.668 170.883C416.717 171.221 415.611 171.391 414.348 171.391ZM439.543 165.609C439.543 165.036 439.4 164.47 439.113 163.91C438.827 163.35 438.273 162.836 437.453 162.367C436.646 161.898 435.454 161.501 433.879 161.176C432.707 160.915 431.659 160.622 430.734 160.297C429.823 159.971 429.055 159.581 428.43 159.125C427.805 158.669 427.329 158.122 427.004 157.484C426.678 156.846 426.516 156.091 426.516 155.219C426.516 154.438 426.685 153.702 427.023 153.012C427.375 152.309 427.87 151.697 428.508 151.176C429.159 150.642 429.94 150.225 430.852 149.926C431.776 149.626 432.811 149.477 433.957 149.477C435.585 149.477 436.978 149.757 438.137 150.316C439.309 150.863 440.201 151.612 440.812 152.562C441.438 153.513 441.75 154.587 441.75 155.785H439.426C439.426 155.056 439.211 154.366 438.781 153.715C438.365 153.064 437.746 152.53 436.926 152.113C436.118 151.697 435.129 151.488 433.957 151.488C432.746 151.488 431.763 151.671 431.008 152.035C430.253 152.4 429.699 152.862 429.348 153.422C429.009 153.982 428.84 154.561 428.84 155.16C428.84 155.629 428.911 156.059 429.055 156.449C429.211 156.827 429.484 157.178 429.875 157.504C430.279 157.829 430.852 158.135 431.594 158.422C432.336 158.708 433.299 158.988 434.484 159.262C436.19 159.639 437.583 160.102 438.664 160.648C439.758 161.182 440.565 161.846 441.086 162.641C441.607 163.422 441.867 164.372 441.867 165.492C441.867 166.365 441.685 167.165 441.32 167.895C440.956 168.611 440.428 169.229 439.738 169.75C439.061 170.271 438.241 170.674 437.277 170.961C436.327 171.247 435.259 171.391 434.074 171.391C432.29 171.391 430.78 171.098 429.543 170.512C428.319 169.913 427.388 169.132 426.75 168.168C426.125 167.191 425.812 166.156 425.812 165.062H428.137C428.215 166.156 428.56 167.022 429.172 167.66C429.784 168.285 430.533 168.728 431.418 168.988C432.316 169.249 433.202 169.379 434.074 169.379C435.272 169.379 436.275 169.203 437.082 168.852C437.889 168.5 438.501 168.038 438.918 167.465C439.335 166.892 439.543 166.273 439.543 165.609Z" fill="black"/>
<path d="M708.156 111.695L711.047 113.984L710.031 114.922L707.188 112.664L708.156 111.695ZM711.008 106.953V107.672C711.008 108.526 710.901 109.292 710.688 109.969C710.474 110.646 710.167 111.221 709.766 111.695C709.365 112.169 708.883 112.531 708.32 112.781C707.763 113.031 707.138 113.156 706.445 113.156C705.773 113.156 705.156 113.031 704.594 112.781C704.036 112.531 703.552 112.169 703.141 111.695C702.734 111.221 702.419 110.646 702.195 109.969C701.971 109.292 701.859 108.526 701.859 107.672V106.953C701.859 106.099 701.969 105.336 702.188 104.664C702.411 103.987 702.727 103.411 703.133 102.938C703.539 102.458 704.021 102.094 704.578 101.844C705.141 101.594 705.758 101.469 706.43 101.469C707.122 101.469 707.75 101.594 708.312 101.844C708.875 102.094 709.357 102.458 709.758 102.938C710.159 103.411 710.466 103.987 710.68 104.664C710.898 105.336 711.008 106.099 711.008 106.953ZM709.516 107.672V106.938C709.516 106.26 709.445 105.661 709.305 105.141C709.169 104.62 708.969 104.182 708.703 103.828C708.438 103.474 708.115 103.206 707.734 103.023C707.354 102.841 706.919 102.75 706.43 102.75C705.966 102.75 705.544 102.841 705.164 103.023C704.789 103.206 704.466 103.474 704.195 103.828C703.924 104.182 703.716 104.62 703.57 105.141C703.424 105.661 703.352 106.26 703.352 106.938V107.672C703.352 108.354 703.424 108.958 703.57 109.484C703.716 110.005 703.924 110.445 704.195 110.805C704.471 111.159 704.799 111.427 705.18 111.609C705.56 111.792 705.982 111.883 706.445 111.883C706.935 111.883 707.37 111.792 707.75 111.609C708.13 111.427 708.451 111.159 708.711 110.805C708.977 110.445 709.177 110.005 709.312 109.484C709.448 108.958 709.516 108.354 709.516 107.672ZM719.844 101.625H721.344V109.32C721.344 110.174 721.154 110.885 720.773 111.453C720.393 112.021 719.888 112.448 719.258 112.734C718.633 113.016 717.953 113.156 717.219 113.156C716.448 113.156 715.75 113.016 715.125 112.734C714.505 112.448 714.013 112.021 713.648 111.453C713.289 110.885 713.109 110.174 713.109 109.32V101.625H714.602V109.32C714.602 109.914 714.711 110.404 714.93 110.789C715.148 111.174 715.453 111.461 715.844 111.648C716.24 111.836 716.698 111.93 717.219 111.93C717.745 111.93 718.203 111.836 718.594 111.648C718.99 111.461 719.297 111.174 719.516 110.789C719.734 110.404 719.844 109.914 719.844 109.32V101.625ZM727.75 102.633L723.984 113H722.445L726.781 101.625H727.773L727.75 102.633ZM730.906 113L727.133 102.633L727.109 101.625H728.102L732.453 113H730.906ZM730.711 108.789V110.023H724.32V108.789H730.711ZM740.875 111.773V113H735.188V111.773H740.875ZM735.484 101.625V113H733.977V101.625H735.484ZM744.219 101.625V113H742.711V101.625H744.219ZM750.93 101.625V113H749.445V101.625H750.93ZM754.586 101.625V102.859H745.797V101.625H754.586ZM756.922 101.625L759.875 107.336L762.836 101.625H764.547L760.625 108.75V113H759.117V108.75L755.195 101.625H756.922Z" fill="#303133"/>
<path d="M629.516 343.539H626.477V342.312H629.516C630.104 342.312 630.581 342.219 630.945 342.031C631.31 341.844 631.576 341.583 631.742 341.25C631.914 340.917 632 340.536 632 340.109C632 339.719 631.914 339.352 631.742 339.008C631.576 338.664 631.31 338.388 630.945 338.18C630.581 337.966 630.104 337.859 629.516 337.859H626.828V348H625.32V336.625H629.516C630.375 336.625 631.102 336.773 631.695 337.07C632.289 337.367 632.74 337.779 633.047 338.305C633.354 338.826 633.508 339.422 633.508 340.094C633.508 340.823 633.354 341.445 633.047 341.961C632.74 342.477 632.289 342.87 631.695 343.141C631.102 343.406 630.375 343.539 629.516 343.539ZM638.547 337.633L634.781 348H633.242L637.578 336.625H638.57L638.547 337.633ZM641.703 348L637.93 337.633L637.906 336.625H638.898L643.25 348H641.703ZM641.508 343.789V345.023H635.117V343.789H641.508ZM650.836 345.125C650.836 344.859 650.794 344.625 650.711 344.422C650.633 344.214 650.492 344.026 650.289 343.859C650.091 343.693 649.815 343.534 649.461 343.383C649.112 343.232 648.669 343.078 648.133 342.922C647.57 342.755 647.062 342.57 646.609 342.367C646.156 342.159 645.768 341.922 645.445 341.656C645.122 341.391 644.875 341.086 644.703 340.742C644.531 340.398 644.445 340.005 644.445 339.562C644.445 339.12 644.536 338.711 644.719 338.336C644.901 337.961 645.161 337.635 645.5 337.359C645.844 337.078 646.253 336.859 646.727 336.703C647.201 336.547 647.729 336.469 648.312 336.469C649.167 336.469 649.891 336.633 650.484 336.961C651.083 337.284 651.539 337.708 651.852 338.234C652.164 338.755 652.32 339.312 652.32 339.906H650.82C650.82 339.479 650.729 339.102 650.547 338.773C650.365 338.44 650.089 338.18 649.719 337.992C649.349 337.799 648.88 337.703 648.312 337.703C647.776 337.703 647.333 337.784 646.984 337.945C646.635 338.107 646.375 338.326 646.203 338.602C646.036 338.878 645.953 339.193 645.953 339.547C645.953 339.786 646.003 340.005 646.102 340.203C646.206 340.396 646.365 340.576 646.578 340.742C646.797 340.909 647.073 341.062 647.406 341.203C647.745 341.344 648.148 341.479 648.617 341.609C649.263 341.792 649.82 341.995 650.289 342.219C650.758 342.443 651.143 342.695 651.445 342.977C651.753 343.253 651.979 343.568 652.125 343.922C652.276 344.271 652.352 344.667 652.352 345.109C652.352 345.573 652.258 345.992 652.07 346.367C651.883 346.742 651.615 347.062 651.266 347.328C650.917 347.594 650.497 347.799 650.008 347.945C649.523 348.086 648.982 348.156 648.383 348.156C647.857 348.156 647.339 348.083 646.828 347.938C646.323 347.792 645.862 347.573 645.445 347.281C645.034 346.99 644.703 346.63 644.453 346.203C644.208 345.771 644.086 345.271 644.086 344.703H645.586C645.586 345.094 645.661 345.43 645.812 345.711C645.964 345.987 646.169 346.216 646.43 346.398C646.695 346.581 646.995 346.716 647.328 346.805C647.667 346.888 648.018 346.93 648.383 346.93C648.909 346.93 649.354 346.857 649.719 346.711C650.083 346.565 650.359 346.357 650.547 346.086C650.74 345.815 650.836 345.495 650.836 345.125ZM660.336 345.125C660.336 344.859 660.294 344.625 660.211 344.422C660.133 344.214 659.992 344.026 659.789 343.859C659.591 343.693 659.315 343.534 658.961 343.383C658.612 343.232 658.169 343.078 657.633 342.922C657.07 342.755 656.562 342.57 656.109 342.367C655.656 342.159 655.268 341.922 654.945 341.656C654.622 341.391 654.375 341.086 654.203 340.742C654.031 340.398 653.945 340.005 653.945 339.562C653.945 339.12 654.036 338.711 654.219 338.336C654.401 337.961 654.661 337.635 655 337.359C655.344 337.078 655.753 336.859 656.227 336.703C656.701 336.547 657.229 336.469 657.812 336.469C658.667 336.469 659.391 336.633 659.984 336.961C660.583 337.284 661.039 337.708 661.352 338.234C661.664 338.755 661.82 339.312 661.82 339.906H660.32C660.32 339.479 660.229 339.102 660.047 338.773C659.865 338.44 659.589 338.18 659.219 337.992C658.849 337.799 658.38 337.703 657.812 337.703C657.276 337.703 656.833 337.784 656.484 337.945C656.135 338.107 655.875 338.326 655.703 338.602C655.536 338.878 655.453 339.193 655.453 339.547C655.453 339.786 655.503 340.005 655.602 340.203C655.706 340.396 655.865 340.576 656.078 340.742C656.297 340.909 656.573 341.062 656.906 341.203C657.245 341.344 657.648 341.479 658.117 341.609C658.763 341.792 659.32 341.995 659.789 342.219C660.258 342.443 660.643 342.695 660.945 342.977C661.253 343.253 661.479 343.568 661.625 343.922C661.776 344.271 661.852 344.667 661.852 345.109C661.852 345.573 661.758 345.992 661.57 346.367C661.383 346.742 661.115 347.062 660.766 347.328C660.417 347.594 659.997 347.799 659.508 347.945C659.023 348.086 658.482 348.156 657.883 348.156C657.357 348.156 656.839 348.083 656.328 347.938C655.823 347.792 655.362 347.573 654.945 347.281C654.534 346.99 654.203 346.63 653.953 346.203C653.708 345.771 653.586 345.271 653.586 344.703H655.086C655.086 345.094 655.161 345.43 655.312 345.711C655.464 345.987 655.669 346.216 655.93 346.398C656.195 346.581 656.495 346.716 656.828 346.805C657.167 346.888 657.518 346.93 657.883 346.93C658.409 346.93 658.854 346.857 659.219 346.711C659.583 346.565 659.859 346.357 660.047 346.086C660.24 345.815 660.336 345.495 660.336 345.125ZM665.391 336.625V348H663.883V336.625H665.391ZM676.891 341.953V342.672C676.891 343.526 676.784 344.292 676.57 344.969C676.357 345.646 676.049 346.221 675.648 346.695C675.247 347.169 674.766 347.531 674.203 347.781C673.646 348.031 673.021 348.156 672.328 348.156C671.656 348.156 671.039 348.031 670.477 347.781C669.919 347.531 669.435 347.169 669.023 346.695C668.617 346.221 668.302 345.646 668.078 344.969C667.854 344.292 667.742 343.526 667.742 342.672V341.953C667.742 341.099 667.852 340.336 668.07 339.664C668.294 338.987 668.609 338.411 669.016 337.938C669.422 337.458 669.904 337.094 670.461 336.844C671.023 336.594 671.641 336.469 672.312 336.469C673.005 336.469 673.63 336.594 674.188 336.844C674.75 337.094 675.232 337.458 675.633 337.938C676.039 338.411 676.349 338.987 676.562 339.664C676.781 340.336 676.891 341.099 676.891 341.953ZM675.398 342.672V341.938C675.398 341.26 675.328 340.661 675.188 340.141C675.052 339.62 674.852 339.182 674.586 338.828C674.32 338.474 673.995 338.206 673.609 338.023C673.229 337.841 672.797 337.75 672.312 337.75C671.844 337.75 671.419 337.841 671.039 338.023C670.664 338.206 670.341 338.474 670.07 338.828C669.805 339.182 669.599 339.62 669.453 340.141C669.307 340.661 669.234 341.26 669.234 341.938V342.672C669.234 343.354 669.307 343.958 669.453 344.484C669.599 345.005 669.807 345.445 670.078 345.805C670.354 346.159 670.68 346.427 671.055 346.609C671.435 346.792 671.859 346.883 672.328 346.883C672.818 346.883 673.253 346.792 673.633 346.609C674.013 346.427 674.333 346.159 674.594 345.805C674.859 345.445 675.06 345.005 675.195 344.484C675.331 343.958 675.398 343.354 675.398 342.672ZM687.898 336.625V348H686.383L680.656 339.227V348H679.148V336.625H680.656L686.406 345.422V336.625H687.898Z" fill="#303133"/>
<path d="M341.234 449.625V461H339.727V449.625H341.234ZM352.727 449.625V461H351.211L345.484 452.227V461H343.977V449.625H345.484L351.234 458.422V449.625H352.727ZM364.148 449.625V461H362.633L356.906 452.227V461H355.398V449.625H356.906L362.656 458.422V449.625H364.148ZM375.578 454.953V455.672C375.578 456.526 375.471 457.292 375.258 457.969C375.044 458.646 374.737 459.221 374.336 459.695C373.935 460.169 373.453 460.531 372.891 460.781C372.333 461.031 371.708 461.156 371.016 461.156C370.344 461.156 369.727 461.031 369.164 460.781C368.607 460.531 368.122 460.169 367.711 459.695C367.305 459.221 366.99 458.646 366.766 457.969C366.542 457.292 366.43 456.526 366.43 455.672V454.953C366.43 454.099 366.539 453.336 366.758 452.664C366.982 451.987 367.297 451.411 367.703 450.938C368.109 450.458 368.591 450.094 369.148 449.844C369.711 449.594 370.328 449.469 371 449.469C371.693 449.469 372.318 449.594 372.875 449.844C373.438 450.094 373.919 450.458 374.32 450.938C374.727 451.411 375.036 451.987 375.25 452.664C375.469 453.336 375.578 454.099 375.578 454.953ZM374.086 455.672V454.938C374.086 454.26 374.016 453.661 373.875 453.141C373.74 452.62 373.539 452.182 373.273 451.828C373.008 451.474 372.682 451.206 372.297 451.023C371.917 450.841 371.484 450.75 371 450.75C370.531 450.75 370.107 450.841 369.727 451.023C369.352 451.206 369.029 451.474 368.758 451.828C368.492 452.182 368.286 452.62 368.141 453.141C367.995 453.661 367.922 454.26 367.922 454.938V455.672C367.922 456.354 367.995 456.958 368.141 457.484C368.286 458.005 368.495 458.445 368.766 458.805C369.042 459.159 369.367 459.427 369.742 459.609C370.122 459.792 370.547 459.883 371.016 459.883C371.505 459.883 371.94 459.792 372.32 459.609C372.701 459.427 373.021 459.159 373.281 458.805C373.547 458.445 373.747 458.005 373.883 457.484C374.018 456.958 374.086 456.354 374.086 455.672ZM381.336 459.273L384.688 449.625H386.32L382.109 461H380.945L381.336 459.273ZM378.203 449.625L381.523 459.273L381.938 461H380.773L376.57 449.625H378.203ZM391.469 450.633L387.703 461H386.164L390.5 449.625H391.492L391.469 450.633ZM394.625 461L390.852 450.633L390.828 449.625H391.82L396.172 461H394.625ZM394.43 456.789V458.023H388.039V456.789H394.43ZM400.883 449.625V461H399.398V449.625H400.883ZM404.539 449.625V450.859H395.75V449.625H404.539ZM407.844 449.625V461H406.336V449.625H407.844ZM419.344 454.953V455.672C419.344 456.526 419.237 457.292 419.023 457.969C418.81 458.646 418.503 459.221 418.102 459.695C417.701 460.169 417.219 460.531 416.656 460.781C416.099 461.031 415.474 461.156 414.781 461.156C414.109 461.156 413.492 461.031 412.93 460.781C412.372 460.531 411.888 460.169 411.477 459.695C411.07 459.221 410.755 458.646 410.531 457.969C410.307 457.292 410.195 456.526 410.195 455.672V454.953C410.195 454.099 410.305 453.336 410.523 452.664C410.747 451.987 411.062 451.411 411.469 450.938C411.875 450.458 412.357 450.094 412.914 449.844C413.477 449.594 414.094 449.469 414.766 449.469C415.458 449.469 416.083 449.594 416.641 449.844C417.203 450.094 417.685 450.458 418.086 450.938C418.492 451.411 418.802 451.987 419.016 452.664C419.234 453.336 419.344 454.099 419.344 454.953ZM417.852 455.672V454.938C417.852 454.26 417.781 453.661 417.641 453.141C417.505 452.62 417.305 452.182 417.039 451.828C416.773 451.474 416.448 451.206 416.062 451.023C415.682 450.841 415.25 450.75 414.766 450.75C414.297 450.75 413.872 450.841 413.492 451.023C413.117 451.206 412.794 451.474 412.523 451.828C412.258 452.182 412.052 452.62 411.906 453.141C411.76 453.661 411.688 454.26 411.688 454.938V455.672C411.688 456.354 411.76 456.958 411.906 457.484C412.052 458.005 412.26 458.445 412.531 458.805C412.807 459.159 413.133 459.427 413.508 459.609C413.888 459.792 414.312 459.883 414.781 459.883C415.271 459.883 415.706 459.792 416.086 459.609C416.466 459.427 416.786 459.159 417.047 458.805C417.312 458.445 417.513 458.005 417.648 457.484C417.784 456.958 417.852 456.354 417.852 455.672ZM430.352 449.625V461H428.836L423.109 452.227V461H421.602V449.625H423.109L428.859 458.422V449.625H430.352Z" fill="#303133"/>
<path d="M66.2344 329.773V331H60.5469V329.773H66.2344ZM60.8438 319.625V331H59.3359V319.625H60.8438ZM75.1875 329.773V331H69.1641V329.773H75.1875ZM69.4688 319.625V331H67.9609V319.625H69.4688ZM74.3906 324.516V325.742H69.1641V324.516H74.3906ZM75.1094 319.625V320.859H69.1641V319.625H75.1094ZM81.2656 320.633L77.5 331H75.9609L80.2969 319.625H81.2891L81.2656 320.633ZM84.4219 331L80.6484 320.633L80.625 319.625H81.6172L85.9688 331H84.4219ZM84.2266 326.789V328.023H77.8359V326.789H84.2266ZM90.5703 331H88.1953L88.2109 329.773H90.5703C91.3828 329.773 92.0599 329.604 92.6016 329.266C93.1432 328.922 93.5495 328.443 93.8203 327.828C94.0964 327.208 94.2344 326.484 94.2344 325.656V324.961C94.2344 324.31 94.1562 323.732 94 323.227C93.8438 322.716 93.6146 322.286 93.3125 321.938C93.0104 321.583 92.6406 321.315 92.2031 321.133C91.7708 320.951 91.2734 320.859 90.7109 320.859H88.1484V319.625H90.7109C91.4557 319.625 92.1354 319.75 92.75 320C93.3646 320.245 93.8932 320.602 94.3359 321.07C94.7839 321.534 95.1276 322.096 95.3672 322.758C95.6068 323.414 95.7266 324.154 95.7266 324.977V325.656C95.7266 326.479 95.6068 327.221 95.3672 327.883C95.1276 328.539 94.7812 329.099 94.3281 329.562C93.8802 330.026 93.3385 330.383 92.7031 330.633C92.0729 330.878 91.362 331 90.5703 331ZM89 319.625V331H87.4922V319.625H89ZM105.219 329.773V331H99.1953V329.773H105.219ZM99.5 319.625V331H97.9922V319.625H99.5ZM104.422 324.516V325.742H99.1953V324.516H104.422ZM105.141 319.625V320.859H99.1953V319.625H105.141ZM107.086 319.625H110.852C111.706 319.625 112.427 319.755 113.016 320.016C113.609 320.276 114.06 320.661 114.367 321.172C114.68 321.677 114.836 322.299 114.836 323.039C114.836 323.56 114.729 324.036 114.516 324.469C114.307 324.896 114.005 325.26 113.609 325.562C113.219 325.859 112.75 326.081 112.203 326.227L111.781 326.391H108.242L108.227 325.164H110.898C111.44 325.164 111.891 325.07 112.25 324.883C112.609 324.69 112.88 324.432 113.062 324.109C113.245 323.786 113.336 323.43 113.336 323.039C113.336 322.602 113.25 322.219 113.078 321.891C112.906 321.562 112.635 321.31 112.266 321.133C111.901 320.951 111.43 320.859 110.852 320.859H108.594V331H107.086V319.625ZM113.734 331L110.969 325.844L112.539 325.836L115.344 330.906V331H113.734ZM123.008 328.125C123.008 327.859 122.966 327.625 122.883 327.422C122.805 327.214 122.664 327.026 122.461 326.859C122.263 326.693 121.987 326.534 121.633 326.383C121.284 326.232 120.841 326.078 120.305 325.922C119.742 325.755 119.234 325.57 118.781 325.367C118.328 325.159 117.94 324.922 117.617 324.656C117.294 324.391 117.047 324.086 116.875 323.742C116.703 323.398 116.617 323.005 116.617 322.562C116.617 322.12 116.708 321.711 116.891 321.336C117.073 320.961 117.333 320.635 117.672 320.359C118.016 320.078 118.424 319.859 118.898 319.703C119.372 319.547 119.901 319.469 120.484 319.469C121.339 319.469 122.062 319.633 122.656 319.961C123.255 320.284 123.711 320.708 124.023 321.234C124.336 321.755 124.492 322.312 124.492 322.906H122.992C122.992 322.479 122.901 322.102 122.719 321.773C122.536 321.44 122.26 321.18 121.891 320.992C121.521 320.799 121.052 320.703 120.484 320.703C119.948 320.703 119.505 320.784 119.156 320.945C118.807 321.107 118.547 321.326 118.375 321.602C118.208 321.878 118.125 322.193 118.125 322.547C118.125 322.786 118.174 323.005 118.273 323.203C118.378 323.396 118.536 323.576 118.75 323.742C118.969 323.909 119.245 324.062 119.578 324.203C119.917 324.344 120.32 324.479 120.789 324.609C121.435 324.792 121.992 324.995 122.461 325.219C122.93 325.443 123.315 325.695 123.617 325.977C123.924 326.253 124.151 326.568 124.297 326.922C124.448 327.271 124.523 327.667 124.523 328.109C124.523 328.573 124.43 328.992 124.242 329.367C124.055 329.742 123.786 330.062 123.438 330.328C123.089 330.594 122.669 330.799 122.18 330.945C121.695 331.086 121.154 331.156 120.555 331.156C120.029 331.156 119.51 331.083 119 330.938C118.495 330.792 118.034 330.573 117.617 330.281C117.206 329.99 116.875 329.63 116.625 329.203C116.38 328.771 116.258 328.271 116.258 327.703H117.758C117.758 328.094 117.833 328.43 117.984 328.711C118.135 328.987 118.341 329.216 118.602 329.398C118.867 329.581 119.167 329.716 119.5 329.805C119.839 329.888 120.19 329.93 120.555 329.93C121.081 329.93 121.526 329.857 121.891 329.711C122.255 329.565 122.531 329.357 122.719 329.086C122.911 328.815 123.008 328.495 123.008 328.125ZM133.875 324.516V325.742H127.719V324.516H133.875ZM127.953 319.625V331H126.445V319.625H127.953ZM135.188 319.625V331H133.688V319.625H135.188ZM139.484 319.625V331H137.977V319.625H139.484ZM146.422 326.539H143.383V325.312H146.422C147.01 325.312 147.487 325.219 147.852 325.031C148.216 324.844 148.482 324.583 148.648 324.25C148.82 323.917 148.906 323.536 148.906 323.109C148.906 322.719 148.82 322.352 148.648 322.008C148.482 321.664 148.216 321.388 147.852 321.18C147.487 320.966 147.01 320.859 146.422 320.859H143.734V331H142.227V319.625H146.422C147.281 319.625 148.008 319.773 148.602 320.07C149.195 320.367 149.646 320.779 149.953 321.305C150.26 321.826 150.414 322.422 150.414 323.094C150.414 323.823 150.26 324.445 149.953 324.961C149.646 325.477 149.195 325.87 148.602 326.141C148.008 326.406 147.281 326.539 146.422 326.539Z" fill="#303133"/>
<path d="M12.5781 101.625V113H11.0703V101.625H12.5781ZM24.0703 101.625V113H22.5547L16.8281 104.227V113H15.3203V101.625H16.8281L22.5781 110.422V101.625H24.0703ZM30.7109 101.625V113H29.2266V101.625H30.7109ZM34.3672 101.625V102.859H25.5781V101.625H34.3672ZM43.2812 111.773V113H37.2578V111.773H43.2812ZM37.5625 101.625V113H36.0547V101.625H37.5625ZM42.4844 106.516V107.742H37.2578V106.516H42.4844ZM43.2031 101.625V102.859H37.2578V101.625H43.2031ZM53.5547 107.336V111.5C53.4141 111.708 53.1901 111.943 52.8828 112.203C52.5755 112.458 52.151 112.682 51.6094 112.875C51.0729 113.062 50.3802 113.156 49.5312 113.156C48.8385 113.156 48.2005 113.036 47.6172 112.797C47.0391 112.552 46.5365 112.198 46.1094 111.734C45.6875 111.266 45.3594 110.698 45.125 110.031C44.8958 109.359 44.7812 108.599 44.7812 107.75V106.867C44.7812 106.018 44.8802 105.26 45.0781 104.594C45.2812 103.927 45.5781 103.362 45.9688 102.898C46.3594 102.43 46.8385 102.076 47.4062 101.836C47.974 101.591 48.625 101.469 49.3594 101.469C50.2292 101.469 50.9557 101.62 51.5391 101.922C52.1276 102.219 52.5859 102.63 52.9141 103.156C53.2474 103.682 53.4609 104.281 53.5547 104.953H52.0469C51.9792 104.542 51.8438 104.167 51.6406 103.828C51.4427 103.49 51.1589 103.219 50.7891 103.016C50.4193 102.807 49.9427 102.703 49.3594 102.703C48.8333 102.703 48.3776 102.799 47.9922 102.992C47.6068 103.185 47.2891 103.461 47.0391 103.82C46.7891 104.18 46.6016 104.615 46.4766 105.125C46.3568 105.635 46.2969 106.211 46.2969 106.852V107.75C46.2969 108.406 46.3724 108.992 46.5234 109.508C46.6797 110.023 46.901 110.464 47.1875 110.828C47.474 111.188 47.8151 111.461 48.2109 111.648C48.612 111.836 49.0547 111.93 49.5391 111.93C50.0755 111.93 50.5104 111.885 50.8438 111.797C51.1771 111.703 51.4375 111.594 51.625 111.469C51.8125 111.339 51.9557 111.216 52.0547 111.102V108.555H49.4219V107.336H53.5547ZM56.0547 101.625H59.8203C60.6745 101.625 61.3958 101.755 61.9844 102.016C62.5781 102.276 63.0286 102.661 63.3359 103.172C63.6484 103.677 63.8047 104.299 63.8047 105.039C63.8047 105.56 63.6979 106.036 63.4844 106.469C63.276 106.896 62.974 107.26 62.5781 107.562C62.1875 107.859 61.7188 108.081 61.1719 108.227L60.75 108.391H57.2109L57.1953 107.164H59.8672C60.4089 107.164 60.8594 107.07 61.2188 106.883C61.5781 106.69 61.849 106.432 62.0312 106.109C62.2135 105.786 62.3047 105.43 62.3047 105.039C62.3047 104.602 62.2188 104.219 62.0469 103.891C61.875 103.562 61.6042 103.31 61.2344 103.133C60.8698 102.951 60.3984 102.859 59.8203 102.859H57.5625V113H56.0547V101.625ZM62.7031 113L59.9375 107.844L61.5078 107.836L64.3125 112.906V113H62.7031ZM67.5312 101.625V113H66.0234V101.625H67.5312ZM74.2422 101.625V113H72.7578V101.625H74.2422ZM77.8984 101.625V102.859H69.1094V101.625H77.8984ZM80.2344 101.625L83.1875 107.336L86.1484 101.625H87.8594L83.9375 108.75V113H82.4297V108.75L78.5078 101.625H80.2344Z" fill="#303133"/>
</g>
</svg>
