<svg width="89" height="90" viewBox="0 0 89 90" fill="none" xmlns="http://www.w3.org/2000/svg">
<path d="M85.177 85.4307H40.1031C39.4343 81.4676 37.424 77.8546 34.4091 75.1967C33.2415 74.2671 32.0008 73.433 30.6991 72.7027V72.6907C29.9033 70.7536 29.7759 68.6064 30.3371 66.5887C31.6898 66.4319 32.9711 65.8973 34.0343 65.0464C35.0975 64.1954 35.8997 63.0623 36.3491 61.7767C38.6311 55.0707 32.5331 47.3647 32.2731 47.0407C32.0227 46.7283 31.6843 46.4982 31.3017 46.3803C30.9191 46.2623 30.5098 46.2619 30.127 46.3791C29.7441 46.4963 29.4053 46.7257 29.1543 47.0377C28.9033 47.3496 28.7517 47.7297 28.7191 48.1287C28.6231 49.3027 27.8491 50.2007 26.5971 51.5727C24.3457 53.6163 22.9653 56.4465 22.7411 59.4787C22.6995 60.7699 23.0217 62.0467 23.671 63.1635C24.3203 64.2803 25.2705 65.1921 26.4131 65.7947C26.0891 67.2789 25.9667 68.7999 26.0491 70.3167L25.3711 69.9927C24.6711 69.6647 23.9711 69.3367 23.2811 68.9927C20.1814 67.5256 17.4632 65.3611 15.3391 62.6687C16.1544 61.8343 16.7437 60.8059 17.0513 59.6805C17.3589 58.5551 17.3747 57.3699 17.0971 56.2367C16.2541 53.3153 14.3209 50.8293 11.6971 49.2927C10.1891 48.2087 9.24709 47.4927 8.91109 46.3607C8.79712 45.9773 8.57079 45.6368 8.26132 45.3833C7.95185 45.1298 7.57348 44.975 7.17509 44.9387C6.77602 44.8975 6.3739 44.9797 6.02303 45.1743C5.67217 45.3688 5.38946 45.6664 5.21309 46.0267C5.02309 46.3987 0.645097 55.1967 4.25509 61.2867C4.8995 62.3567 5.80823 63.243 6.89399 63.8605C7.97975 64.478 9.20605 64.8059 10.4551 64.8127C10.9212 64.8098 11.3857 64.7582 11.8411 64.6587C13.8419 67.3538 16.357 69.6256 19.2411 71.3427C18.8651 71.4867 18.5251 71.6347 18.2031 71.7787C17.3723 70.791 16.2815 70.0555 15.0542 69.6558C13.827 69.256 12.5123 69.2078 11.2591 69.5167C8.34067 70.3743 5.86331 72.3204 4.3391 74.9527C3.2651 76.4647 2.5391 77.4087 1.4211 77.7527C1.03775 77.8687 0.698028 78.097 0.445933 78.4082C0.193838 78.7194 0.0409792 79.0991 0.00714932 79.4982C-0.0266805 79.8972 0.0600774 80.2973 0.256189 80.6465C0.4523 80.9957 0.748731 81.2779 1.1071 81.4567C4.07381 82.88 7.3027 83.6746 10.5911 83.7907C12.6134 83.8417 14.6112 83.3397 16.3691 82.3387C17.531 81.629 18.4692 80.6062 19.0763 79.3875C19.6833 78.1688 19.9345 76.8037 19.8011 75.4487C21.5295 74.5734 23.4752 74.2196 25.4011 74.4307C27.707 75.4597 29.8834 76.7574 31.8851 78.2967C33.975 80.1799 35.4163 82.6754 36.0031 85.4267H2.7131C2.18266 85.4267 1.67396 85.6375 1.29888 86.0125C0.92381 86.3876 0.713097 86.8963 0.713097 87.4267C0.713097 87.9572 0.92381 88.4659 1.29888 88.841C1.67396 89.216 2.18266 89.4267 2.7131 89.4267H85.177C85.7075 89.4267 86.2162 89.216 86.5913 88.841C86.9663 88.4659 87.177 87.9572 87.177 87.4267C87.177 86.8963 86.9663 86.3876 86.5913 86.0125C86.2162 85.6375 85.7075 85.4267 85.177 85.4267V85.4307ZM7.69509 59.2487C6.59843 56.6641 6.53827 53.7565 7.52709 51.1287C8.12709 51.6527 8.75709 52.1067 9.36109 52.5407C11.2115 53.5422 12.599 55.2252 13.2291 57.2327C13.3681 57.8238 13.3069 58.4443 13.0551 58.9967C12.7823 58.4544 12.5314 57.9013 12.3031 57.3387C12.2123 57.0857 12.0714 56.8535 11.8888 56.6562C11.7062 56.4588 11.4858 56.3003 11.2405 56.1901C10.9953 56.0799 10.7304 56.0202 10.4616 56.0147C10.1928 56.0092 9.92566 56.0579 9.67613 56.158C9.4266 56.2581 9.19981 56.4075 9.00932 56.5972C8.81882 56.7869 8.66853 57.0131 8.56743 57.2622C8.46633 57.5113 8.4165 57.7783 8.42091 58.0471C8.42532 58.3159 8.48388 58.5811 8.59309 58.8267C8.84109 59.4447 9.12109 60.0267 9.40709 60.6267C8.69786 60.3727 8.09481 59.8873 7.69509 59.2487ZM29.5511 54.2687C30.0531 53.7207 30.5791 53.1447 31.0551 52.5087C32.5644 54.8754 33.105 57.7322 32.5651 60.4867C32.3757 61.0096 32.0571 61.476 31.6391 61.8427C31.6851 61.6427 31.7531 61.3907 31.7871 61.2047C31.8408 60.9438 31.8419 60.6747 31.7902 60.4133C31.7385 60.152 31.6351 59.9036 31.486 59.6827C31.337 59.4618 31.1453 59.273 30.9223 59.1272C30.6993 58.9815 30.4494 58.8818 30.1873 58.8339C29.9252 58.7861 29.6561 58.7911 29.396 58.8487C29.1359 58.9062 28.8898 59.0152 28.6724 59.1692C28.455 59.3232 28.2705 59.519 28.1298 59.7453C27.9891 59.9715 27.895 60.2236 27.8531 60.4867C27.8011 60.7687 27.7131 61.1727 27.5711 61.7087C27.2982 61.4418 27.0832 61.1214 26.9397 60.7677C26.7962 60.4139 26.7273 60.0344 26.7371 59.6527C26.9409 57.5609 27.9499 55.6302 29.5511 54.2687ZM14.3131 78.9167C11.7334 80.0243 8.82623 80.0959 6.19509 79.1167C6.71509 78.5167 7.16509 77.8827 7.59509 77.2767C8.58874 75.4247 10.2644 74.0324 12.2671 73.3947C12.636 73.3052 13.0194 73.2925 13.3934 73.3576C13.7674 73.4226 14.1241 73.5639 14.4411 73.7727C14.0411 73.9727 13.6411 74.1727 13.3151 74.3067C13.068 74.4039 12.8427 74.5494 12.6523 74.7346C12.462 74.9198 12.3105 75.141 12.2065 75.3854C12.1026 75.6298 12.0484 75.8924 12.0471 76.158C12.0458 76.4235 12.0973 76.6867 12.1988 76.9321C12.3003 77.1775 12.4496 77.4003 12.638 77.5873C12.8265 77.7744 13.0503 77.9221 13.2965 78.0218C13.5426 78.1215 13.8062 78.1711 14.0717 78.1678C14.3372 78.1646 14.5995 78.1084 14.8431 78.0027C15.0171 77.9307 15.2431 77.8027 15.4431 77.7227C15.1735 78.2099 14.7847 78.6207 14.3131 78.9167Z" fill="#ECC558"/>
<path d="M87.523 48.0826C87.8835 45.8965 88.0621 43.6843 88.057 41.4686C88.0709 35.5658 86.8059 29.7299 84.349 24.3626C83.9584 23.4866 83.5357 22.6246 83.081 21.7766C81.7066 19.2182 80.0618 16.8145 78.175 14.6066C72.8203 8.30913 65.7057 3.7556 57.7445 1.53056C49.7833 -0.69449 41.3388 -0.489517 33.4949 2.11916C25.651 4.72785 18.7657 9.62119 13.7228 16.1711C8.67997 22.721 5.70961 30.6285 5.19307 38.8786C5.1821 39.1499 5.22545 39.4207 5.32057 39.675C5.41569 39.9293 5.56067 40.162 5.74698 40.3595C5.93329 40.557 6.15719 40.7152 6.40552 40.825C6.65385 40.9348 6.92161 40.9938 7.19307 40.9986H29.8911C30.6374 41.0138 31.379 40.8773 32.071 40.5975C32.763 40.3177 33.3911 39.9003 33.9171 39.3706C34.942 38.2976 35.5069 36.8664 35.4911 35.3826C35.5514 34.0028 35.0739 32.6534 34.1592 31.6186C33.2444 30.5837 31.9639 29.9442 30.5871 29.8346H24.0051C23.5823 29.82 23.1811 29.6442 22.8837 29.3434C22.5862 29.0427 22.415 28.6395 22.4051 28.2166C22.3886 27.9999 22.4195 27.7822 22.4955 27.5785C22.5715 27.3749 22.6909 27.1902 22.8454 27.0372C22.9998 26.8843 23.1857 26.7668 23.3901 26.6928C23.5945 26.6187 23.8125 26.59 24.0291 26.6086H25.4651C26.1554 26.5752 26.8321 26.4042 27.4555 26.1056C28.0788 25.807 28.6362 25.3868 29.0949 24.8698C29.5536 24.3528 29.9044 23.7493 30.1266 23.0948C30.3489 22.4404 30.4381 21.7481 30.3891 21.0586C30.3875 19.5697 29.7953 18.1421 28.7424 17.0893C27.6896 16.0364 26.262 15.4442 24.7731 15.4426H19.6291C26.4175 8.40652 35.6899 4.30622 45.4627 4.0188C55.2355 3.73137 64.7328 7.27965 71.923 13.9046H67.869C66.1116 13.9082 64.4269 14.6071 63.183 15.8486C62.2558 16.7766 61.6242 17.9585 61.3682 19.2451C61.1122 20.5318 61.2431 21.8654 61.7445 23.0776C62.2459 24.2899 63.0952 25.3264 64.1853 26.0563C65.2753 26.7862 66.5572 27.1768 67.869 27.1786H81.165C83.6303 33.0442 84.5423 39.446 83.813 45.7666H62.537C61.0501 45.772 59.6255 46.3643 58.573 47.4146C58.0496 47.9335 57.6343 48.551 57.351 49.2314C57.0678 49.9118 56.9223 50.6416 56.923 51.3786C56.8736 52.7566 57.355 54.101 58.2679 55.1345C59.1808 56.1679 60.4555 56.8116 61.829 56.9326L69.263 56.9466C69.6716 56.938 70.067 57.0913 70.3629 57.3731C70.6589 57.6548 70.8315 58.0422 70.843 58.4506C70.869 58.6568 70.8505 58.8662 70.789 59.0646C70.7274 59.2631 70.6242 59.4461 70.4861 59.6014C70.348 59.7567 70.1784 59.8807 69.9884 59.9651C69.7986 60.0495 69.5928 60.0923 69.385 60.0906H67.609C66.869 60.0933 66.1371 60.2445 65.4566 60.5351C64.776 60.8257 64.1607 61.25 63.647 61.7826C62.8706 62.5692 62.3443 63.5679 62.1344 64.653C61.9245 65.7381 62.0403 66.8611 62.4674 67.8804C62.8944 68.8998 63.6135 69.77 64.5342 70.3815C65.4548 70.993 66.5358 71.3183 67.641 71.3167H69.253C62.74 76.2873 54.7681 78.9687 46.575 78.9446C45.6884 78.9446 44.8104 78.914 43.941 78.8527C43.6774 78.8297 43.4118 78.8602 43.1602 78.9423C42.9086 79.0245 42.6761 79.1565 42.4767 79.3305C42.2773 79.5045 42.115 79.7169 41.9996 79.9551C41.8842 80.1933 41.818 80.4523 41.805 80.7167C41.7682 81.2454 41.9428 81.7672 42.2904 82.1673C42.6381 82.5675 43.1303 82.8132 43.659 82.8507C44.6217 82.9187 45.5937 82.9533 46.575 82.9547C56.4308 82.9553 65.9646 79.4462 73.4681 73.0561C80.9715 66.666 85.9541 57.8127 87.523 48.0826ZM24.7711 19.4426C25.1995 19.4432 25.6102 19.6136 25.9132 19.9165C26.2161 20.2195 26.3865 20.6302 26.3871 21.0586C26.4095 21.4424 26.2821 21.8199 26.0318 22.1116C25.7815 22.4033 25.4278 22.5865 25.0451 22.6226C24.7191 22.6226 24.3051 22.6226 24.0011 22.6346C23.2597 22.6036 22.5204 22.7342 21.8345 23.0174C21.1486 23.3006 20.5326 23.7296 20.0291 24.2746C19.2508 25.0591 18.722 26.0563 18.5093 27.1407C18.2966 28.2251 18.4095 29.3481 18.8337 30.3685C19.2579 31.3889 19.9745 32.2609 20.8933 32.8748C21.8121 33.4888 22.892 33.8172 23.9971 33.8186H30.1731C30.5498 33.8629 30.8953 34.0495 31.1389 34.3403C31.3824 34.6311 31.5056 35.004 31.4831 35.3826C31.4888 35.5951 31.4514 35.8064 31.3732 36.004C31.295 36.2016 31.1776 36.3813 31.0281 36.5323C30.8786 36.6833 30.7001 36.8025 30.5033 36.8826C30.3065 36.9628 30.0955 37.0022 29.8831 36.9986H9.37507C10.1219 30.6504 12.4967 24.6028 16.2691 19.4426H24.7711ZM65.239 20.5346C65.2514 19.8415 65.5322 19.1802 66.0224 18.69C66.5126 18.1998 67.1739 17.919 67.867 17.9066H75.685C76.237 18.5866 76.765 19.2853 77.269 20.0026C77.9897 21.027 78.6572 22.0878 79.269 23.1806H67.869C67.1721 23.1697 66.5071 22.8869 66.0158 22.3926C65.5245 21.8983 65.2457 21.2316 65.239 20.5346ZM73.717 67.3167H67.641C67.216 67.3151 66.8087 67.1464 66.5071 66.847C66.2055 66.5476 66.0338 66.1416 66.029 65.7167C66.0365 65.4944 66.0908 65.2762 66.1884 65.0763C66.2859 64.8764 66.4245 64.6994 66.595 64.5566C66.8762 64.294 67.2483 64.1506 67.633 64.1567H69.399C70.1286 64.1564 70.8507 64.01 71.5228 63.726C72.1948 63.4421 72.8032 63.0264 73.3119 62.5035C73.8207 61.9805 74.2195 61.361 74.4849 60.6814C74.7503 60.0018 74.8768 59.276 74.857 58.5466C74.841 57.0699 74.2486 55.6578 73.2061 54.6116C72.1637 53.5654 70.7538 52.9679 69.277 52.9466H62.229C61.8505 52.9076 61.5024 52.7218 61.2593 52.429C61.0163 52.1362 60.8977 51.7599 60.929 51.3806C60.9296 51.1686 60.9724 50.9588 61.0548 50.7635C61.1372 50.5681 61.2576 50.3911 61.409 50.2426C61.7113 49.9436 62.1179 49.7737 62.543 49.7686H83.143C81.6595 56.3679 78.4 62.436 73.717 67.3167Z" fill="black"/>
</svg>
